<svg width="56" height="56" viewBox="0 0 56 56" fill="none" xmlns="http://www.w3.org/2000/svg">
<path d="M5.25 28.875H29.75V48.125H5.25V28.875Z" fill="#AAE1F9"/>
<path d="M2.625 48.125H32.375V49.875C32.375 50.8033 32.0063 51.6935 31.3499 52.3499C30.6935 53.0063 29.8033 53.375 28.875 53.375H6.125C5.19674 53.375 4.3065 53.0063 3.65013 52.3499C2.99375 51.6935 2.625 50.8033 2.625 49.875V48.125Z" fill="#F9E109"/>
<path d="M8.75 35.875V28.875H5.25V48.125H29.75V44.625H17.5C15.1794 44.625 12.9538 43.7031 11.3128 42.0622C9.67187 40.4212 8.75 38.1956 8.75 35.875Z" fill="#57B7EB"/>
<path d="M7.875 50.75C7.17881 50.75 6.51113 50.4734 6.01884 49.9812C5.52656 49.4889 5.25 48.8212 5.25 48.125H2.625V49.875C2.625 50.8033 2.99375 51.6935 3.65013 52.3499C4.3065 53.0063 5.19674 53.375 6.125 53.375H28.875C29.649 53.3725 30.4003 53.1135 31.0114 52.6385C31.6226 52.1636 32.059 51.4994 32.2525 50.75H7.875Z" fill="#FCBC04"/>
<path d="M51.625 29.75H41.125C40.1585 29.75 39.375 30.5335 39.375 31.5V42C39.375 42.9665 40.1585 43.75 41.125 43.75H51.625C52.5915 43.75 53.375 42.9665 53.375 42V31.5C53.375 30.5335 52.5915 29.75 51.625 29.75Z" fill="#36AAF2"/>
<path d="M46.375 39.375C47.8247 39.375 49 38.1997 49 36.75C49 35.3003 47.8247 34.125 46.375 34.125C44.9253 34.125 43.75 35.3003 43.75 36.75C43.75 38.1997 44.9253 39.375 46.375 39.375Z" fill="#57B7EB"/>
<path d="M42 34.125V29.75H41.125C40.6609 29.75 40.2158 29.9344 39.8876 30.2626C39.5594 30.5908 39.375 31.0359 39.375 31.5V42C39.375 42.4641 39.5594 42.9092 39.8876 43.2374C40.2158 43.5656 40.6609 43.75 41.125 43.75H51.625C52.0891 43.75 52.5342 43.5656 52.8624 43.2374C53.1906 42.9092 53.375 42.4641 53.375 42V41.125H49C47.1435 41.125 45.363 40.3875 44.0503 39.0747C42.7375 37.762 42 35.9815 42 34.125Z" fill="#4999E9"/>
<path d="M47.25 36.75C47.7332 36.75 48.125 36.3582 48.125 35.875C48.125 35.3918 47.7332 35 47.25 35C46.7668 35 46.375 35.3918 46.375 35.875C46.375 36.3582 46.7668 36.75 47.25 36.75Z" fill="#AAE1F9"/>
<path d="M2.625 10.5H13.125V24.5H2.625V10.5Z" fill="#36AAF2"/>
<path d="M23.625 15.75C27.491 15.75 30.625 12.616 30.625 8.75C30.625 4.88401 27.491 1.75 23.625 1.75C19.759 1.75 16.625 4.88401 16.625 8.75C16.625 12.616 19.759 15.75 23.625 15.75Z" fill="#F89C8D"/>
<path d="M21.875 11.375V6.125L27.125 8.75L21.875 11.375Z" fill="#AAE1F9"/>
<path d="M26.2504 13.1252C24.3939 13.1252 22.6134 12.3877 21.3007 11.0749C19.9879 9.76219 19.2504 7.98171 19.2504 6.1252C19.2482 4.91247 19.565 3.72049 20.1692 2.66895C19.2472 3.21055 18.4616 3.95615 17.8726 4.84855C17.2836 5.74095 16.9069 6.75642 16.7713 7.81705C16.6358 8.87767 16.745 9.95525 17.0906 10.9671C17.4362 11.979 18.009 12.8982 18.7651 13.6543C19.5212 14.4103 20.4404 14.9832 21.4523 15.3288C22.4641 15.6744 23.5417 15.7836 24.6023 15.648C25.6629 15.5125 26.6784 15.1357 27.5708 14.5467C28.4632 13.9577 29.2088 13.1721 29.7504 12.2502C28.6818 12.8465 27.474 13.1485 26.2504 13.1252Z" fill="#F8664F"/>
<path d="M5.25 16.625V10.5H2.625V24.5H13.125V21.875H10.5C9.10761 21.875 7.77226 21.3219 6.78769 20.3373C5.80312 19.3527 5.25 18.0174 5.25 16.625Z" fill="#4999E9"/>
<path d="M16.6797 37.7695L19.7107 36.0195L23.2107 42.0815C23.4427 42.4835 23.5056 42.9611 23.3855 43.4094C23.2654 43.8577 22.9721 44.24 22.5702 44.472C22.1682 44.7041 21.6906 44.767 21.2423 44.6469C20.794 44.5267 20.4118 44.2335 20.1797 43.8315L16.6797 37.7695Z" fill="#F8664F"/>
<path d="M21.9277 39.8559L19.714 36.0146L16.6777 37.7646L18.7515 41.3521L20.2652 40.4771L21.9277 39.8559Z" fill="#CC5144"/>
<path d="M35.2184 33.1275L20.2646 38.7275L15.8896 31.15L28.2184 21L35.2184 33.1275Z" fill="#36AAF2"/>
<path d="M12.1044 33.3379L15.8932 31.1504L20.2682 38.7279L16.4794 40.9154C15.8765 41.2635 15.16 41.3578 14.4876 41.1776C13.8151 40.9974 13.2418 40.5575 12.8937 39.9546L11.1437 36.9236C10.7956 36.3207 10.7013 35.6042 10.8814 34.9318C11.0616 34.2593 11.5015 33.686 12.1044 33.3379Z" fill="#F89C8D"/>
<path d="M9.62202 37.7979L11.1375 36.9229L12.8875 39.9539L11.372 40.8289C10.9701 41.0609 10.4924 41.1238 10.0441 41.0037C9.59582 40.8836 9.21359 40.5903 8.98152 40.1884C8.74947 39.7864 8.68658 39.3088 8.8067 38.8605C8.92681 38.4122 9.22009 38.0299 9.62202 37.7979Z" fill="#CC5144"/>
<path d="M21.2804 36.0498C21.1898 36.0836 21.1021 36.1246 21.0179 36.1723L19.3467 37.1348L20.2654 38.7273L35.2192 33.1273L34.1254 31.2373L21.2804 36.0498Z" fill="#4999E9"/>
<path d="M18.8654 37.4148C18.169 37.8132 17.3766 38.0125 16.5747 37.9908C15.7727 37.9692 14.9922 37.7275 14.3184 37.2921C13.6445 36.8568 13.1034 36.2445 12.7541 35.5223C12.4048 34.8001 12.2608 33.9958 12.3379 33.1973L12.1016 33.3373C11.8027 33.5095 11.5407 33.7389 11.3305 34.0125C11.1203 34.286 10.9662 34.5983 10.8768 34.9315C10.7874 35.2647 10.7645 35.6122 10.8096 35.9543C10.8546 36.2963 10.9665 36.6261 11.1391 36.9248L12.8891 39.9523C13.0613 40.2512 13.2908 40.5132 13.5643 40.7234C13.8379 40.9335 14.1502 41.0877 14.4834 41.1771C14.8165 41.2665 15.1641 41.2893 15.5061 41.2443C15.8481 41.1993 16.1779 41.0873 16.4766 40.9148L20.2654 38.7273L19.3466 37.1348L18.8654 37.4148Z" fill="#F8664F"/>
<path d="M7.875 53.375V51.625C7.875 51.3929 7.96719 51.1704 8.13128 51.0063C8.29538 50.8422 8.51794 50.75 8.75 50.75C8.98206 50.75 9.20462 50.8422 9.36872 51.0063C9.53281 51.1704 9.625 51.3929 9.625 51.625V53.375H7.875ZM25.375 53.375V51.625C25.375 51.3929 25.4672 51.1704 25.6313 51.0063C25.7954 50.8422 26.0179 50.75 26.25 50.75C26.4821 50.75 26.7046 50.8422 26.8687 51.0063C27.0328 51.1704 27.125 51.3929 27.125 51.625V53.375H25.375Z" fill="#57B7EB"/>
<path d="M32.375 20.125C32.1857 20.125 32.0015 20.0636 31.85 19.95C31.6644 19.8108 31.5416 19.6035 31.5088 19.3737C31.476 19.144 31.5358 18.9107 31.675 18.725L34.3 15.225C34.4392 15.0394 34.6465 14.9166 34.8763 14.8838C35.106 14.851 35.3393 14.9108 35.525 15.05C35.7107 15.1892 35.8334 15.3965 35.8662 15.6263C35.899 15.856 35.8392 16.0894 35.7 16.275L33.075 19.775C32.9935 19.8837 32.8878 19.9719 32.7663 20.0326C32.6448 20.0934 32.5108 20.125 32.375 20.125ZM35 23.625C34.8642 23.625 34.7302 23.5934 34.6087 23.5326C34.4872 23.4719 34.3815 23.3837 34.3 23.275C34.1608 23.0894 34.101 22.856 34.1338 22.6263C34.1666 22.3965 34.2894 22.1892 34.475 22.05L37.975 19.425C38.0669 19.3561 38.1715 19.3059 38.2828 19.2774C38.3942 19.2489 38.51 19.2425 38.6237 19.2588C38.7375 19.275 38.8469 19.3135 38.9458 19.3721C39.0447 19.4306 39.1311 19.5081 39.2 19.6C39.2689 19.6919 39.3191 19.7965 39.3476 19.9078C39.3761 20.0192 39.3825 20.135 39.3662 20.2487C39.35 20.3625 39.3115 20.4719 39.2529 20.5708C39.1944 20.6697 39.1169 20.7561 39.025 20.825L35.525 23.45C35.3735 23.5636 35.1893 23.625 35 23.625ZM37.625 27.125C37.3929 27.1482 37.1612 27.0783 36.9807 26.9306C36.8002 26.7829 36.6857 26.5696 36.6625 26.3375C36.6393 26.1054 36.7092 25.8737 36.8569 25.6932C37.0046 25.5127 37.2179 25.3982 37.45 25.375L41.825 24.5C42.0571 24.4536 42.2981 24.5013 42.495 24.6325C42.6919 24.7638 42.8286 24.9679 42.875 25.2C42.9214 25.4321 42.8737 25.6731 42.7425 25.87C42.6112 26.0669 42.4071 26.2036 42.175 26.25L37.8 27.125H37.625Z" fill="#F9E109"/>
<path d="M9.625 14.875H7.875C7.64294 14.875 7.42038 14.7828 7.25628 14.6187C7.09219 14.4546 7 14.2321 7 14C7 13.7679 7.09219 13.5454 7.25628 13.3813C7.42038 13.2172 7.64294 13.125 7.875 13.125H9.625C9.85706 13.125 10.0796 13.2172 10.2437 13.3813C10.4078 13.5454 10.5 13.7679 10.5 14C10.5 14.2321 10.4078 14.4546 10.2437 14.6187C10.0796 14.7828 9.85706 14.875 9.625 14.875ZM9.625 18.375H6.125C5.89294 18.375 5.67038 18.2828 5.50628 18.1187C5.34219 17.9546 5.25 17.7321 5.25 17.5C5.25 17.2679 5.34219 17.0454 5.50628 16.8813C5.67038 16.7172 5.89294 16.625 6.125 16.625H9.625C9.85706 16.625 10.0796 16.7172 10.2437 16.8813C10.4078 17.0454 10.5 17.2679 10.5 17.5C10.5 17.7321 10.4078 17.9546 10.2437 18.1187C10.0796 18.2828 9.85706 18.375 9.625 18.375ZM9.625 21.875H6.125C5.89294 21.875 5.67038 21.7828 5.50628 21.6187C5.34219 21.4546 5.25 21.2321 5.25 21C5.25 20.7679 5.34219 20.5454 5.50628 20.3813C5.67038 20.2172 5.89294 20.125 6.125 20.125H9.625C9.85706 20.125 10.0796 20.2172 10.2437 20.3813C10.4078 20.5454 10.5 20.7679 10.5 21C10.5 21.2321 10.4078 21.4546 10.2437 21.6187C10.0796 21.7828 9.85706 21.875 9.625 21.875Z" fill="#FCBC04"/>
<g clip-path="url(#clip0_6040_493)">
<path d="M52.25 1H41.75C40.7849 1 40 1.78487 40 2.75V13.25C40 14.2151 40.7849 15 41.75 15H52.25C53.2151 15 54 14.2151 54 13.25V2.75C54 1.78487 53.2151 1 52.25 1Z" fill="#1976D2"/>
<path d="M51.8125 8H49.625V6.25C49.625 5.767 50.017 5.8125 50.5 5.8125H51.375V3.625H49.625C48.1751 3.625 47 4.80013 47 6.25V8H45.25V10.1875H47V15H49.625V10.1875H50.9375L51.8125 8Z" fill="#FAFAFA"/>
</g>
<defs>
<clipPath id="clip0_6040_493">
<rect width="14" height="14" fill="white" transform="translate(40 1)"/>
</clipPath>
</defs>
</svg>
