<svg width="32" height="32" viewBox="0 0 32 32" fill="none" xmlns="http://www.w3.org/2000/svg">
<g clip-path="url(#clip0_6040_1288)">
<path fill-rule="evenodd" clip-rule="evenodd" d="M9.25558 11.7809H11.8766C11.9594 11.781 12.0388 11.814 12.0974 11.8726C12.1559 11.9311 12.1889 12.0105 12.1891 12.0934V17.4151C12.1889 17.4979 12.1559 17.5773 12.0974 17.6358C12.0388 17.6944 11.9594 17.7274 11.8766 17.7276H9.25558C9.17275 17.7274 9.09336 17.6944 9.03479 17.6358C8.97622 17.5773 8.94324 17.4979 8.94308 17.4151V12.0934C8.94324 12.0105 8.97622 11.9311 9.03479 11.8726C9.09336 11.814 9.17275 11.781 9.25558 11.7809ZM4.67789 20.0871L7.44533 30.4154C7.47136 30.5136 7.45745 30.6182 7.40664 30.7062C7.35583 30.7942 7.27224 30.8586 7.17414 30.8852L5.62995 31.2989C5.5317 31.325 5.42714 31.311 5.33912 31.2602C5.2511 31.2094 5.18677 31.1258 5.1602 31.0277L2.3927 20.6996C2.36669 20.6014 2.3806 20.4968 2.43141 20.4088C2.48222 20.3208 2.5658 20.2564 2.66389 20.2298L4.20814 19.8161C4.30639 19.79 4.41095 19.8039 4.49897 19.8548C4.58699 19.9056 4.65132 19.9892 4.67789 20.0873V20.0871ZM5.8287 20.7598L8.13714 29.3749C10.3042 29.0312 11.7968 29.4567 13.6923 29.9972C14.0527 30.1 14.428 30.2071 14.8057 30.3083C15.1627 30.411 15.5369 30.4391 15.9052 30.3907C16.2735 30.3423 16.6278 30.2185 16.9461 30.0271L28.948 23.0986C29.252 22.9203 29.4748 22.6309 29.5694 22.2914C29.664 21.952 29.623 21.589 29.455 21.2792C29.0191 20.6126 28.3036 20.3808 27.5903 20.7689L21.2789 24.4126C20.9314 24.8864 20.4327 25.2276 19.8652 25.3797L16.6846 26.2319C16.3422 26.3248 15.9894 26.3736 15.6346 26.3771C15.2879 26.3806 14.9423 26.3366 14.6074 26.2466C14.4874 26.2145 14.3851 26.1361 14.323 26.0286C14.2608 25.9212 14.2439 25.7934 14.276 25.6734C14.308 25.5535 14.3864 25.4512 14.4939 25.389C14.6014 25.3269 14.7291 25.3099 14.8491 25.342C15.1027 25.411 15.3645 25.4451 15.6273 25.4433C15.9031 25.4395 16.1772 25.4005 16.4431 25.3274L19.6237 24.4752C19.8379 24.4218 20.0393 24.3263 20.2161 24.1942C20.3929 24.0621 20.5417 23.8961 20.6537 23.706C20.7657 23.5158 20.8387 23.3052 20.8684 23.0864C20.8981 22.8677 20.8839 22.6453 20.8267 22.4321C20.7695 22.2189 20.6704 22.0193 20.5352 21.8448C20.4 21.6704 20.2314 21.5246 20.0392 21.416C19.8471 21.3074 19.6352 21.2382 19.416 21.2124C19.1968 21.1866 18.9746 21.2047 18.7625 21.2657L16.5875 21.8486C16.0739 21.9929 15.5363 22.0313 15.0073 21.9615C14.4784 21.8916 13.9692 21.715 13.5106 21.4423L10.6356 19.7822C9.66351 19.2982 8.71314 19.7541 7.76683 20.1092C7.18801 20.3265 6.55014 20.5659 5.82889 20.7598H5.8287ZM18.6362 2.35587L17.6032 2.07905C17.4219 2.03047 17.2673 1.91184 17.1734 1.74926C17.0795 1.58669 17.0541 1.39348 17.1027 1.21215C17.1513 1.03081 17.2699 0.876208 17.4325 0.782341C17.595 0.688473 17.7882 0.663033 17.9696 0.711617L20.7266 1.45043C20.9079 1.49906 21.0625 1.61769 21.1564 1.78025C21.2502 1.94281 21.2757 2.13598 21.2271 2.3173L20.5278 4.92762C20.5037 5.0174 20.4622 5.10157 20.4056 5.17532C20.349 5.24907 20.2785 5.31095 20.198 5.35742C20.1175 5.4039 20.0286 5.43407 19.9365 5.44621C19.8443 5.45834 19.7506 5.4522 19.6609 5.42815C19.4795 5.37956 19.3249 5.26094 19.2311 5.09836C19.1846 5.01786 19.1544 4.92899 19.1423 4.83683C19.1301 4.74468 19.1363 4.65103 19.1603 4.56124L19.4371 3.52824L10.0043 8.97399C9.84173 9.06786 9.64851 9.0933 9.46716 9.0447C9.28581 8.99611 9.1312 8.87746 9.03733 8.71487C8.94346 8.55227 8.91802 8.35905 8.96662 8.1777C9.01521 7.99635 9.13386 7.84174 9.29645 7.74787L18.6362 2.35587ZM23.8246 4.5168H26.4456C26.5284 4.51697 26.6078 4.54995 26.6664 4.60852C26.7249 4.66709 26.7579 4.74648 26.7581 4.8293V17.4149C26.7579 17.4977 26.7249 17.5771 26.6664 17.6357C26.6078 17.6942 26.5284 17.7272 26.4456 17.7274H23.8246C23.7418 17.7272 23.6624 17.6942 23.6039 17.6357C23.5453 17.5771 23.5123 17.4977 23.5121 17.4149V4.82905C23.5123 4.74623 23.5453 4.66684 23.6039 4.60827C23.6624 4.5497 23.7418 4.51672 23.8246 4.51655V4.5168ZM18.9684 6.93818C18.8856 6.93834 18.8062 6.97132 18.7476 7.02989C18.689 7.08846 18.6561 7.16785 18.6559 7.25068V17.4149C18.6561 17.4977 18.689 17.5771 18.7476 17.6357C18.8062 17.6942 18.8856 17.7272 18.9684 17.7274H21.5894C21.6722 17.7272 21.7516 17.6942 21.8102 17.6357C21.8688 17.5771 21.9017 17.4977 21.9019 17.4149V7.25043C21.9017 7.1676 21.8688 7.0882 21.8102 7.02962C21.7516 6.97105 21.6722 6.93808 21.5894 6.93793L18.9684 6.93818ZM14.1121 9.35955H16.7331C16.8159 9.35972 16.8953 9.3927 16.9539 9.45127C17.0124 9.50983 17.0454 9.58922 17.0456 9.67205V17.4149C17.0454 17.4977 17.0124 17.5771 16.9539 17.6357C16.8953 17.6942 16.8159 17.7272 16.7331 17.7274H14.112C14.0291 17.7272 13.9497 17.6942 13.8912 17.6357C13.8326 17.5771 13.7996 17.4977 13.7995 17.4149V9.6718C13.7996 9.58897 13.8326 9.50958 13.8912 9.45102C13.9497 9.39245 14.0291 9.35947 14.112 9.3593L14.1121 9.35955Z" fill="#0271E8"/>
</g>
<defs>
<clipPath id="clip0_6040_1288">
<rect width="32" height="32" fill="white"/>
</clipPath>
</defs>
</svg>
