<svg width="56" height="56" viewBox="0 0 56 56" fill="none" xmlns="http://www.w3.org/2000/svg">
<g clip-path="url(#clip0_6040_418)">
<path d="M55.4153 13.9531C54.6206 7.80927 51.2785 0 37.1074 0C27.3209 0 27.1887 4.68781 16.7647 2.36359C9.16825 0.669922 1.61503 6.25723 0.565032 14.0625C-0.567656 22.4826 5.52311 26.3425 7.50039 33.4072C9.63331 41.0275 11.1652 56 20.6557 56C31.1205 56 31.6608 47.9024 38.4391 39.0172C44.961 30.4678 57.1013 26.9877 55.4153 13.9531Z" fill="url(#paint0_linear_6040_418)"/>
<path d="M49.7449 35.257L49.198 35.8039H5.64814L5.10236 35.257V14.9756L5.64814 14.4287H49.198L49.7449 14.9756V35.257Z" fill="#FFC498"/>
<path d="M49.7461 25.7286V34.2468C49.4235 34.3222 49.0866 34.3627 48.741 34.3627C47.551 34.3627 46.4725 33.8869 45.6839 33.1158L39.5939 37.5805C40.204 38.4007 40.5379 39.3934 40.5477 40.4155H30.8385C30.8538 39.0275 31.4532 37.7807 32.4004 36.9057L27.7957 31.636C27.6721 31.6404 27.5485 31.6425 27.4238 31.6425C23.0991 31.6425 19.3793 29.0558 17.7266 25.3458L11.5021 27.763C11.5885 28.1054 11.6344 28.4641 11.6344 28.8338C11.6344 31.2499 9.67551 33.2088 7.25941 33.2088C6.4752 33.2088 5.7391 33.0021 5.10254 32.6411V25.0264C5.7391 24.6655 6.4752 24.4588 7.25941 24.4588C8.91863 24.4588 10.3624 25.383 11.1039 26.7447L17.3339 24.3243C16.9875 23.2612 16.8115 22.1501 16.8122 21.0321C16.8122 19.7163 17.0529 18.4574 17.4904 17.2947L13.7366 14.335C13.0017 14.8519 12.1249 15.1289 11.2264 15.128C8.81035 15.128 6.85145 13.1691 6.85145 10.753C6.85145 10.5649 6.86348 10.3789 6.88645 10.1963H15.5664C15.5894 10.3789 15.6014 10.5649 15.6014 10.753C15.6014 11.8358 15.2077 12.8257 14.5558 13.5891L17.9443 16.26C19.691 12.7972 23.2796 10.4205 27.4238 10.4205C33.2841 10.4205 38.0354 15.1718 38.0354 21.0321C38.0354 26.3094 34.181 30.6866 29.1344 31.5047L33.2852 36.2571C33.995 35.8502 34.8164 35.6172 35.6936 35.6172C36.8946 35.6172 37.9927 36.0536 38.8404 36.7766L45.0014 32.2605C44.5845 31.5758 44.3646 30.7894 44.366 29.9877C44.366 27.5716 46.3238 25.6127 48.741 25.6127C49.0866 25.6127 49.4235 25.6532 49.7461 25.7286Z" fill="#FFAA66"/>
<path d="M49.7452 11.29V14.976H5.10156V11.29C5.10156 10.6863 5.59156 10.1963 6.19531 10.1963H48.6514C49.2552 10.1963 49.7452 10.6863 49.7452 11.29Z" fill="#FFAA66"/>
<path d="M14.5559 13.5891C15.2322 12.799 15.6031 11.7929 15.6016 10.753C15.6016 10.5649 15.5895 10.3789 15.5666 10.1963H6.88656C6.86359 10.3789 6.85156 10.5649 6.85156 10.753C6.85156 12.7732 8.22094 14.4729 10.0814 14.976H12.3717C12.8672 14.8414 13.3277 14.6216 13.7367 14.335L14.5494 14.976H16.3158L14.5559 13.5891ZM42.1677 10.1963V14.4291C42.1677 14.7321 41.9227 14.976 41.6208 14.976H32.1511C31.8492 14.976 31.6042 14.7321 31.6042 14.4291V10.1963H42.1677Z" fill="#FF9C33"/>
<path d="M49.7449 35.2571V39.3215C49.7449 39.9252 49.2549 40.4152 48.6512 40.4152H6.1951C5.59135 40.4152 5.10135 39.9252 5.10135 39.3215V35.2571H49.7449Z" fill="#6C6CFF"/>
<path d="M39.5943 37.58C40.2044 38.4002 40.5383 39.3928 40.5481 40.415H30.8389C30.8542 39.027 31.4536 37.7801 32.4007 36.9051L30.9603 35.2568H32.4128L33.2856 36.2565C33.9954 35.8496 34.8168 35.6167 35.694 35.6167C36.895 35.6167 37.9931 36.0531 38.8407 36.7761L40.9134 35.2568H42.7629L39.5943 37.58Z" fill="#4D4DFF"/>
<path d="M20.8973 40.4152H33.949V46.8617H20.8973V40.4152Z" fill="#B2B2FF"/>
<path d="M33.9486 40.415V45.0044C32.1286 44.3033 30.8369 42.5391 30.8369 40.4719V40.415H33.9486Z" fill="#9393FF"/>
<path d="M20.8975 40.415H33.9492V43.04H20.8975V40.415Z" fill="#9393FF"/>
<path d="M35.7333 49.3008H19.1143C18.9402 49.3008 18.7733 49.2317 18.6502 49.1086C18.5271 48.9855 18.458 48.8186 18.458 48.6446V47.5186C18.458 47.3445 18.5271 47.1776 18.6502 47.0545C18.7733 46.9314 18.9402 46.8623 19.1143 46.8623H35.7333C35.9074 46.8623 36.0743 46.9314 36.1974 47.0545C36.3205 47.1776 36.3896 47.3445 36.3896 47.5186V48.6446C36.3896 48.8186 36.3205 48.9855 36.1974 49.1086C36.0743 49.2317 35.9074 49.3008 35.7333 49.3008Z" fill="#D8D8FF"/>
<path d="M18.548 15.4002C18.4225 15.4003 18.3008 15.3571 18.2035 15.2778L13.8894 11.7278C13.7795 11.6355 13.7102 11.5037 13.6966 11.3608C13.6829 11.2179 13.726 11.0753 13.8165 10.9639C13.9071 10.8525 14.0377 10.7811 14.1804 10.7652C14.3231 10.7493 14.4663 10.7901 14.5791 10.8788L18.8932 14.4288C18.9809 14.5001 19.0443 14.5967 19.0748 14.7055C19.1053 14.8143 19.1013 14.9299 19.0635 15.0363C19.0257 15.1428 18.9558 15.2349 18.8635 15.3001C18.7712 15.3652 18.661 15.4002 18.548 15.4002Z" fill="#FF7300"/>
<path d="M11.2256 12.5029C13.6418 12.5029 15.6006 10.5442 15.6006 8.12793C15.6006 5.71168 13.6418 3.75293 11.2256 3.75293C8.80934 3.75293 6.85059 5.71168 6.85059 8.12793C6.85059 10.5442 8.80934 12.5029 11.2256 12.5029Z" fill="#FFC498"/>
<path d="M13.3124 9.44132L12.442 8.57091C12.8051 7.8778 12.6958 6.99985 12.1141 6.41808C11.3976 5.70179 10.2321 5.70179 9.51574 6.41808C8.79944 7.13438 8.79944 8.3001 9.51574 9.01639C9.68624 9.18708 9.88878 9.32241 10.1117 9.4146C10.3347 9.5068 10.5736 9.55405 10.8149 9.55364C11.1122 9.55386 11.4051 9.48203 11.6686 9.3443L12.539 10.2147C12.6458 10.3215 12.7857 10.3748 12.9257 10.3748C13.0657 10.3748 13.2056 10.3215 13.3125 10.2147C13.415 10.1121 13.4726 9.97303 13.4726 9.82799C13.4726 9.68295 13.4149 9.54386 13.3124 9.44132ZM10.2892 8.243C10.15 8.10345 10.0719 7.9144 10.0719 7.71729C10.0719 7.52019 10.15 7.33113 10.2892 7.19158C10.4342 7.04666 10.6246 6.97414 10.815 6.97414C11.0054 6.97414 11.1957 7.04666 11.3408 7.19158C11.6306 7.48143 11.6306 7.95316 11.3408 8.243C11.0509 8.53285 10.5792 8.53296 10.2892 8.243Z" fill="white"/>
<path d="M48.6524 10.1963H6.19629C5.59254 10.1963 5.10254 10.6863 5.10254 11.29V39.3218C5.10254 39.9255 5.59254 40.4155 6.19629 40.4155H48.6524C49.2561 40.4155 49.7461 39.9255 49.7461 39.3218V11.29C49.7461 10.6863 49.2561 10.1963 48.6524 10.1963Z" fill="url(#paint1_linear_6040_418)"/>
<path d="M41.96 44.9379C41.8819 44.938 41.8047 44.9214 41.7337 44.8891C41.6626 44.8569 41.5992 44.8097 41.5479 44.7509L38.1797 40.8682C38.0881 40.7584 38.0432 40.6172 38.0544 40.4747C38.0657 40.3322 38.1323 40.1998 38.2399 40.1058C38.3475 40.0118 38.4877 39.9636 38.6304 39.9716C38.7731 39.9795 38.907 40.0431 39.0035 40.1485L42.3717 44.0312C42.4407 44.1103 42.4855 44.2076 42.5007 44.3115C42.5159 44.4154 42.501 44.5214 42.4576 44.617C42.4142 44.7126 42.3442 44.7937 42.2559 44.8506C42.1677 44.9075 42.065 44.9378 41.96 44.9379Z" fill="#FF4D4D"/>
<path d="M33.5856 35.3851C33.5075 35.3852 33.4303 35.3685 33.3592 35.3363C33.2882 35.304 33.2248 35.2569 33.1735 35.198L27.1055 28.2686C27.0139 28.1588 26.969 28.0176 26.9802 27.8751C26.9915 27.7326 27.058 27.6002 27.1657 27.5062C27.2733 27.4121 27.4135 27.364 27.5562 27.3719C27.6989 27.3799 27.8328 27.4434 27.9293 27.5489L33.9973 34.4784C34.0663 34.5575 34.1111 34.6548 34.1263 34.7586C34.1415 34.8625 34.1265 34.9686 34.0831 35.0642C34.0397 35.1598 33.9698 35.2408 33.8815 35.2977C33.7933 35.3546 33.6906 35.385 33.5856 35.3851Z" fill="#8282FF"/>
<path d="M39.2428 35.0817C39.1274 35.0819 39.015 35.0455 38.9215 34.9779C38.8281 34.9103 38.7584 34.8149 38.7225 34.7053C38.6866 34.5956 38.6862 34.4775 38.7215 34.3677C38.7568 34.2579 38.826 34.162 38.919 34.0939L44.9921 29.6423C45.1091 29.559 45.2543 29.5251 45.3962 29.548C45.538 29.5709 45.6652 29.6487 45.7502 29.7645C45.8351 29.8804 45.871 30.0251 45.8502 30.1673C45.8293 30.3095 45.7533 30.4377 45.6387 30.5243L39.5656 34.9759C39.4721 35.0448 39.3589 35.0819 39.2428 35.0817Z" fill="#FF4D4D"/>
<path d="M35.6933 42.7024C38.375 42.7024 40.5488 40.5286 40.5488 37.8469C40.5488 35.1653 38.375 32.9915 35.6933 32.9915C33.0117 32.9915 30.8379 35.1653 30.8379 37.8469C30.8379 40.5286 33.0117 42.7024 35.6933 42.7024Z" fill="#B2B2FF"/>
<path d="M37.5101 37.2116C37.5101 36.2097 36.6949 35.3945 35.693 35.3945C34.6911 35.3945 33.876 36.2097 33.876 37.2116C33.876 37.7057 34.0748 38.1538 34.3961 38.4817C34.0748 38.8097 33.876 39.2578 33.876 39.7519C33.876 40.054 34.1208 40.2988 34.4229 40.2988C34.7249 40.2988 34.9697 40.054 34.9697 39.7519C34.9697 39.3531 35.2942 39.0286 35.693 39.0286C36.0918 39.0286 36.4163 39.3531 36.4163 39.7519C36.4163 40.054 36.6611 40.2988 36.9632 40.2988C37.2653 40.2988 37.5101 40.054 37.5101 39.7519C37.5101 39.2578 37.3112 38.8097 36.99 38.4817C37.3112 38.1538 37.5101 37.7057 37.5101 37.2116ZM35.693 36.4883C36.0918 36.4883 36.4163 36.8128 36.4163 37.2116C36.4163 37.6104 36.0918 37.9349 35.693 37.9349C35.2942 37.9349 34.9697 37.6104 34.9697 37.2116C34.9697 36.8128 35.2941 36.4883 35.693 36.4883Z" fill="white"/>
<path d="M11.032 25.3055C10.9044 25.3055 10.7809 25.2609 10.6828 25.1794C10.5846 25.0979 10.518 24.9847 10.4945 24.8593C10.471 24.734 10.4921 24.6043 10.5541 24.4928C10.616 24.3813 10.715 24.295 10.8339 24.2488L17.319 21.705C17.4542 21.6527 17.6047 21.6561 17.7374 21.7146C17.8701 21.773 17.9742 21.8817 18.0269 22.0169C18.0794 22.1521 18.076 22.3026 18.0175 22.4354C17.9591 22.5681 17.8502 22.6722 17.715 22.7247L11.23 25.2685C11.1668 25.293 11.0997 25.3055 11.032 25.3055Z" fill="#FF4D4D"/>
<path d="M44.8857 52.0195C47.302 52.0195 49.2607 50.0608 49.2607 47.6445C49.2607 45.2283 47.302 43.2695 44.8857 43.2695C42.4695 43.2695 40.5107 45.2283 40.5107 47.6445C40.5107 50.0608 42.4695 52.0195 44.8857 52.0195Z" fill="#FF6C6C"/>
<path d="M46.9725 48.9579L46.1021 48.0875C46.4652 47.3944 46.356 46.5164 45.7742 45.9347C45.0578 45.2184 43.8923 45.2184 43.1759 45.9347C42.4596 46.651 42.4596 47.8167 43.1759 48.533C43.3464 48.7037 43.5489 48.839 43.7719 48.9312C43.9948 49.0234 44.2338 49.0707 44.4751 49.0702C44.7723 49.0705 45.0653 48.9986 45.3287 48.8609L46.1991 49.7313C46.306 49.8381 46.4459 49.8914 46.5859 49.8914C46.7259 49.8914 46.8658 49.8381 46.9726 49.7313C47.0751 49.6287 47.1327 49.4896 47.1327 49.3446C47.1326 49.1996 47.075 49.0605 46.9725 48.9579ZM43.9494 47.7597C43.8102 47.6202 43.732 47.4311 43.732 47.234C43.732 47.0369 43.8102 46.8478 43.9494 46.7083C44.0943 46.5634 44.2847 46.4909 44.4752 46.4909C44.6656 46.4909 44.8559 46.5634 45.0009 46.7083C45.2908 46.9981 45.2908 47.4699 45.0009 47.7597C44.7111 48.0496 44.2392 48.0496 43.9494 47.7597Z" fill="white"/>
<path d="M48.7402 31.7373C51.1565 31.7373 53.1152 29.7786 53.1152 27.3623C53.1152 24.9461 51.1565 22.9873 48.7402 22.9873C46.324 22.9873 44.3652 24.9461 44.3652 27.3623C44.3652 29.7786 46.324 31.7373 48.7402 31.7373Z" fill="#FF6C6C"/>
<path d="M50.827 28.6757L49.9566 27.8053C50.3197 27.1122 50.2105 26.2342 49.6287 25.6525C48.9123 24.9362 47.7468 24.9362 47.0304 25.6525C46.3141 26.3688 46.3141 27.5345 47.0304 28.2508C47.2009 28.4215 47.4034 28.5568 47.6264 28.649C47.8493 28.7412 48.0883 28.7884 48.3295 28.788C48.6268 28.7882 48.9198 28.7164 49.1832 28.5787L50.0536 29.4491C50.1605 29.5558 50.3004 29.6092 50.4404 29.6092C50.5804 29.6092 50.7203 29.5558 50.8271 29.4491C50.9296 29.3465 50.9872 29.2074 50.9871 29.0624C50.9871 28.9173 50.9295 28.7783 50.827 28.6757ZM47.8039 27.4774C47.6647 27.3378 47.5865 27.1488 47.5865 26.9517C47.5865 26.7546 47.6647 26.5655 47.8039 26.426C47.9488 26.281 48.1392 26.2085 48.3297 26.2085C48.5201 26.2085 48.7104 26.281 48.8554 26.426C49.1453 26.7158 49.1453 27.1875 48.8554 27.4774C48.5656 27.7672 48.0937 27.7673 47.8039 27.4774Z" fill="white"/>
<path d="M7.25955 30.5833C9.6758 30.5833 11.6346 28.6245 11.6346 26.2083C11.6346 23.792 9.6758 21.8333 7.25955 21.8333C4.84331 21.8333 2.88455 23.792 2.88455 26.2083C2.88455 28.6245 4.84331 30.5833 7.25955 30.5833Z" fill="#FF6C6C"/>
<path d="M9.3463 27.5216L8.47589 26.6512C8.83902 25.9581 8.72975 25.0802 8.14799 24.4984C7.43158 23.7821 6.26608 23.7821 5.54967 24.4984C4.83338 25.2147 4.83338 26.3804 5.54967 27.0967C5.72018 27.2674 5.92272 27.4027 6.14566 27.4949C6.36861 27.5871 6.60757 27.6344 6.84883 27.634C7.14612 27.6342 7.43904 27.5624 7.7025 27.4246L8.57291 28.295C8.67977 28.4018 8.81966 28.4552 8.95966 28.4552C9.09966 28.4552 9.23955 28.4018 9.34641 28.295C9.44895 28.1925 9.50655 28.0533 9.50653 27.9083C9.50651 27.7633 9.44887 27.6242 9.3463 27.5216ZM6.32317 26.3234C6.18398 26.1839 6.10581 25.9948 6.10581 25.7977C6.10581 25.6006 6.18398 25.4116 6.32317 25.272C6.4681 25.1271 6.65852 25.0546 6.84894 25.0546C7.03936 25.0546 7.22967 25.1271 7.37471 25.272C7.66455 25.5619 7.66455 26.0336 7.37471 26.3234C7.08486 26.6133 6.61302 26.6133 6.32317 26.3234Z" fill="white"/>
<path d="M12.5381 48.1198C12.393 48.1198 12.2539 48.0622 12.1514 47.9596C12.0488 47.8571 11.9912 47.718 11.9912 47.5729C11.9912 47.2413 11.7213 46.9714 11.3896 46.9714C11.0876 46.9714 10.8428 46.7266 10.8428 46.4245C10.8428 46.1224 11.0876 45.8776 11.3896 45.8776C11.7213 45.8776 11.9912 45.6077 11.9912 45.2761C11.9912 44.974 12.236 44.7292 12.5381 44.7292C12.8402 44.7292 13.085 44.974 13.085 45.2761C13.085 45.6077 13.3549 45.8776 13.6865 45.8776C13.9886 45.8776 14.2334 46.1224 14.2334 46.4245C14.2334 46.7266 13.9886 46.9714 13.6865 46.9714C13.527 46.9716 13.3741 47.035 13.2614 47.1478C13.1486 47.2606 13.0852 47.4134 13.085 47.5729C13.085 47.718 13.0273 47.8571 12.9248 47.9596C12.8222 48.0622 12.6831 48.1198 12.5381 48.1198ZM21.6739 5.99512C21.5288 5.99512 21.3897 5.9375 21.2872 5.83494C21.1846 5.73238 21.127 5.59328 21.127 5.44824C21.127 5.11662 20.857 4.84668 20.5254 4.84668C20.2233 4.84668 19.9785 4.6019 19.9785 4.2998C19.9785 3.99771 20.2233 3.75293 20.5254 3.75293C20.857 3.75293 21.127 3.48299 21.127 3.15137C21.127 2.84927 21.3718 2.60449 21.6739 2.60449C21.9759 2.60449 22.2207 2.84927 22.2207 3.15137C22.2207 3.48299 22.4907 3.75293 22.8223 3.75293C23.1244 3.75293 23.3692 3.99771 23.3692 4.2998C23.3692 4.6019 23.1244 4.84668 22.8223 4.84668C22.6628 4.84688 22.5099 4.91033 22.3971 5.0231C22.2844 5.13587 22.2209 5.28876 22.2207 5.44824C22.2207 5.59328 22.1631 5.73238 22.0606 5.83494C21.958 5.9375 21.8189 5.99512 21.6739 5.99512Z" fill="#FF6C6C"/>
<path d="M7.41797 51.0508C7.27293 51.0508 7.13383 50.9932 7.03127 50.8906C6.92871 50.788 6.87109 50.6489 6.87109 50.5039C6.87109 50.1723 6.60116 49.9023 6.26953 49.9023C5.96744 49.9023 5.72266 49.6576 5.72266 49.3555C5.72266 49.0534 5.96744 48.8086 6.26953 48.8086C6.60116 48.8086 6.87109 48.5387 6.87109 48.207C6.87109 47.9049 7.11587 47.6602 7.41797 47.6602C7.72006 47.6602 7.96484 47.9049 7.96484 48.207C7.96484 48.5387 8.23478 48.8086 8.56641 48.8086C8.8685 48.8086 9.11328 49.0534 9.11328 49.3555C9.11328 49.6576 8.8685 49.9023 8.56641 49.9023C8.40692 49.9025 8.25403 49.966 8.14126 50.0788C8.02849 50.1915 7.96505 50.3444 7.96484 50.5039C7.96484 50.6489 7.90723 50.788 7.80467 50.8906C7.70211 50.9932 7.56301 51.0508 7.41797 51.0508Z" fill="#FF9C33"/>
<path d="M47.5195 7.57615C47.4477 7.57625 47.3765 7.56215 47.3102 7.53465C47.2438 7.50715 47.1836 7.46679 47.1329 7.41591L45.9844 6.26747C45.9336 6.21671 45.8933 6.15643 45.8659 6.09009C45.8384 6.02375 45.8242 5.95264 45.8242 5.88083C45.8242 5.80902 45.8384 5.73792 45.8659 5.67157C45.8933 5.60523 45.9336 5.54496 45.9844 5.49419L47.1329 4.34576C47.1836 4.29496 47.2439 4.25467 47.3102 4.22718C47.3766 4.1997 47.4477 4.18555 47.5195 4.18555C47.5913 4.18555 47.6624 4.1997 47.7288 4.22718C47.7951 4.25467 47.8554 4.29496 47.9061 4.34576L49.0546 5.49419C49.1054 5.54496 49.1457 5.60523 49.1732 5.67157C49.2006 5.73792 49.2148 5.80902 49.2148 5.88083C49.2148 5.95264 49.2006 6.02375 49.1732 6.09009C49.1457 6.15643 49.1054 6.21671 49.0546 6.26747L47.9061 7.41591C47.8554 7.46676 47.7952 7.5071 47.7288 7.5346C47.6625 7.56209 47.5913 7.57621 47.5195 7.57615ZM47.1445 5.88083L47.5195 6.25588L47.8946 5.88083L47.5195 5.50579L47.1445 5.88083ZM52.7718 45.3337C52.7 45.3338 52.6288 45.3197 52.5625 45.2922C52.4961 45.2647 52.4359 45.2244 52.3852 45.1735L51.2367 44.025C51.1859 43.9743 51.1456 43.914 51.1182 43.8476C51.0907 43.7813 51.0765 43.7102 51.0765 43.6384C51.0765 43.5666 51.0907 43.4955 51.1182 43.4291C51.1456 43.3628 51.1859 43.3025 51.2367 43.2518L52.3852 42.1033C52.4359 42.0525 52.4962 42.0122 52.5625 41.9847C52.6289 41.9573 52.7 41.9431 52.7718 41.9431C52.8436 41.9431 52.9147 41.9573 52.9811 41.9847C53.0474 42.0122 53.1077 42.0525 53.1584 42.1033L54.3069 43.2518C54.3577 43.3025 54.398 43.3628 54.4255 43.4291C54.4529 43.4955 54.4671 43.5666 54.4671 43.6384C54.4671 43.7102 54.4529 43.7813 54.4255 43.8476C54.398 43.914 54.3577 43.9743 54.3069 44.025L53.1584 45.1735C53.1078 45.2244 53.0475 45.2647 52.9811 45.2922C52.9148 45.3197 52.8436 45.3338 52.7718 45.3337ZM52.3969 43.6384L52.7719 44.0134L53.147 43.6384L52.7719 43.2633L52.3969 43.6384Z" fill="#6C6CFF"/>
<path d="M27.4235 29.0179C33.2838 29.0179 38.0345 24.2672 38.0345 18.4069C38.0345 12.5466 33.2838 7.7959 27.4235 7.7959C21.5632 7.7959 16.8125 12.5466 16.8125 18.4069C16.8125 24.2672 21.5632 29.0179 27.4235 29.0179Z" fill="#6C6CFF"/>
<path d="M37.4681 14.976H32.1514C31.8495 14.976 31.6045 14.7321 31.6045 14.4291V10.1963H34.1453C35.659 11.4355 36.8228 13.086 37.4681 14.976Z" fill="#4D4DFF"/>
<path d="M27.4235 26.6174C31.958 26.6174 35.634 22.9414 35.634 18.4069C35.634 13.8723 31.958 10.1963 27.4235 10.1963C22.8889 10.1963 19.2129 13.8723 19.2129 18.4069C19.2129 22.9414 22.8889 26.6174 27.4235 26.6174Z" fill="#8282FF"/>
<path d="M34.8857 14.9756H32.1514C31.8495 14.9756 31.6045 14.7317 31.6045 14.4287V11.3389C33.0418 12.1902 34.1862 13.4586 34.8857 14.9756Z" fill="#6C6CFF"/>
<path d="M28.5905 17.1416C28.8926 17.1416 29.1374 16.8968 29.1374 16.5947C29.1374 16.2926 28.8926 16.0479 28.5905 16.0479H26.3075C26.1625 16.0479 26.0234 16.1055 25.9208 16.208C25.8182 16.3106 25.7606 16.4497 25.7606 16.5947V20.2189C25.7606 20.3639 25.8182 20.503 25.9208 20.6056C26.0234 20.7081 26.1625 20.7657 26.3075 20.7657H28.5905C28.8926 20.7657 29.1374 20.521 29.1374 20.2189C29.1374 19.9168 28.8926 19.672 28.5905 19.672H26.8544V18.9537H28.1012C28.4033 18.9537 28.6481 18.7089 28.6481 18.4069C28.6481 18.1048 28.4033 17.86 28.1012 17.86H26.8544V17.1417H28.5905V17.1416ZM31.8058 16.0479H31.163C30.4092 16.0479 29.796 16.661 29.796 17.4148V19.3988C29.796 20.1526 30.4092 20.7657 31.163 20.7657H31.8058C32.5596 20.7657 33.1728 20.1526 33.1728 19.3988V17.4148C33.1728 16.661 32.5595 16.0479 31.8058 16.0479ZM32.079 19.3987C32.0789 19.4711 32.0501 19.5405 31.9989 19.5918C31.9477 19.643 31.8782 19.6718 31.8058 19.6719H31.163C31.0906 19.6718 31.0211 19.643 30.9699 19.5918C30.9187 19.5405 30.8899 19.4711 30.8898 19.3987V17.4148C30.8899 17.3424 30.9187 17.2729 30.9699 17.2217C31.0211 17.1705 31.0906 17.1417 31.163 17.1416H31.8058C31.8782 17.1417 31.9477 17.1705 31.9989 17.2217C32.0501 17.2729 32.0789 17.3424 32.079 17.4148V19.3987ZM23.1267 17.1416H24.2592C24.5613 17.1416 24.8061 16.8968 24.8061 16.5947C24.8061 16.2926 24.5613 16.0479 24.2592 16.0479H23.1267C22.3256 16.0479 21.6738 16.6996 21.6738 17.5008C21.6738 18.3019 22.3256 18.9536 23.1267 18.9536H23.3532C23.5513 18.9536 23.7124 19.1148 23.7124 19.3128C23.7124 19.5108 23.5511 19.6719 23.3532 19.6719H22.2207C21.9186 19.6719 21.6738 19.9167 21.6738 20.2188C21.6738 20.5209 21.9186 20.7656 22.2207 20.7656H23.3532C24.1543 20.7656 24.8061 20.1139 24.8061 19.3128C24.8061 18.5116 24.1543 17.8599 23.3532 17.8599H23.1267C22.9286 17.8599 22.7676 17.6988 22.7676 17.5008C22.7676 17.3028 22.9287 17.1416 23.1267 17.1416Z" fill="white"/>
<path d="M41.6202 12.3511H32.1514C32.0064 12.3511 31.8673 12.2935 31.7647 12.191C31.6622 12.0884 31.6046 11.9493 31.6046 11.8043V4.72375C31.6046 4.57871 31.6622 4.43961 31.7647 4.33706C31.8673 4.2345 32.0064 4.17688 32.1514 4.17688H41.6202C41.7653 4.17688 41.9044 4.2345 42.0069 4.33706C42.1095 4.43961 42.1671 4.57871 42.1671 4.72375V11.8043C42.1671 11.9493 42.1095 12.0884 42.0069 12.191C41.9044 12.2935 41.7653 12.3511 41.6202 12.3511Z" fill="#FF6C6C"/>
<path d="M33.8281 9.38686C33.8281 9.5319 33.8857 9.671 33.9883 9.77356C34.0909 9.87612 34.23 9.93373 34.375 9.93373H39.6175C39.7625 9.93373 39.9016 9.87612 40.0042 9.77356C40.1067 9.671 40.1643 9.5319 40.1643 9.38686C40.1643 9.24182 40.1067 9.10272 40.0042 9.00016C39.9016 8.8976 39.7625 8.83998 39.6175 8.83998H34.375C34.23 8.83998 34.0909 8.8976 33.9883 9.00016C33.8857 9.10272 33.8281 9.24182 33.8281 9.38686ZM33.8281 7.14063C33.8281 7.28567 33.8857 7.42476 33.9883 7.52732C34.0909 7.62988 34.23 7.6875 34.375 7.6875H37.43C37.575 7.6875 37.7141 7.62988 37.8167 7.52732C37.9192 7.42476 37.9768 7.28567 37.9768 7.14063C37.9768 6.99558 37.9192 6.85648 37.8167 6.75393C37.7141 6.65137 37.575 6.59375 37.43 6.59375H34.375C34.23 6.59375 34.0909 6.65137 33.9883 6.75393C33.8857 6.85648 33.8281 6.99558 33.8281 7.14063Z" fill="white"/>
</g>
<defs>
<linearGradient id="paint0_linear_6040_418" x1="3.84891" y1="42.4943" x2="46.4741" y2="-0.13092" gradientUnits="userSpaceOnUse">
<stop stop-color="#FFD8D8" stop-opacity="0"/>
<stop offset="0.998" stop-color="#FFB2B2"/>
</linearGradient>
<linearGradient id="paint1_linear_6040_418" x1="27.4243" y1="40.4155" x2="27.4243" y2="10.1963" gradientUnits="userSpaceOnUse">
<stop stop-color="#FF4D4D" stop-opacity="0.4"/>
<stop offset="0.146" stop-color="#FF4D4D" stop-opacity="0.342"/>
<stop offset="1" stop-color="#FF4D4D" stop-opacity="0"/>
</linearGradient>
<clipPath id="clip0_6040_418">
<rect width="56" height="56" fill="white"/>
</clipPath>
</defs>
</svg>
