<svg width="32" height="32" viewBox="0 0 32 32" fill="none" xmlns="http://www.w3.org/2000/svg">
<g clip-path="url(#clip0_6040_1298)">
<path d="M16.5337 6.40011V2.51851C16.851 2.33345 17.067 1.99318 17.067 1.60011C17.067 1.01185 16.5886 0.533447 16.0003 0.533447C15.4121 0.533447 14.9337 1.01185 14.9337 1.60011C14.9337 1.99318 15.1497 2.33345 15.467 2.51851V6.40011H16.5337ZM12.8003 13.135L12.0441 16.5334H13.5566L12.8003 13.135ZM25.6003 28.8001C25.2073 28.8001 24.867 29.0161 24.6819 29.3334H22.9337V25.6001H21.867V29.3334C21.867 29.9201 22.347 30.4001 22.9337 30.4001H24.6819C24.867 30.7174 25.2073 30.9334 25.6003 30.9334C26.1886 30.9334 26.667 30.455 26.667 29.8668C26.667 29.2785 26.1886 28.8001 25.6003 28.8001Z" fill="#0271E8"/>
<path d="M7.46666 8.53356V23.4669C7.46666 24.0552 7.94506 24.5336 8.53333 24.5336H23.4667C24.0549 24.5336 24.5333 24.0552 24.5333 23.4669V8.53356C24.5333 7.94529 24.0549 7.4669 23.4667 7.4669H8.53333C7.94506 7.4669 7.46666 7.94529 7.46666 8.53356ZM17.0667 12.2669C16.9252 12.2669 16.7896 12.2107 16.6895 12.1107C16.5895 12.0107 16.5333 11.875 16.5333 11.7336C16.5333 11.5921 16.5895 11.4565 16.6895 11.3564C16.7896 11.2564 16.9252 11.2002 17.0667 11.2002H20.2667C20.4081 11.2002 20.5438 11.2564 20.6438 11.3564C20.7438 11.4565 20.8 11.5921 20.8 11.7336C20.8 11.875 20.7438 12.0107 20.6438 12.1107C20.5438 12.2107 20.4081 12.2669 20.2667 12.2669H19.2V19.7336H20.2667C20.4081 19.7336 20.5438 19.7898 20.6438 19.8898C20.7438 19.9898 20.8 20.1254 20.8 20.2669C20.8 20.4083 20.7438 20.544 20.6438 20.644C20.5438 20.744 20.4081 20.8002 20.2667 20.8002H17.0667C16.9252 20.8002 16.7896 20.744 16.6895 20.644C16.5895 20.544 16.5333 20.4083 16.5333 20.2669C16.5333 20.1254 16.5895 19.9898 16.6895 19.8898C16.7896 19.7898 16.9252 19.7336 17.0667 19.7336H18.1333V12.2669H17.0667ZM10.1456 20.1512L11.9936 11.8466C12.0789 11.4658 12.4101 11.2002 12.8 11.2002C13.1899 11.2002 13.5211 11.4658 13.6059 11.8456L15.4544 20.1512C15.4812 20.2879 15.4535 20.4297 15.3772 20.5463C15.3009 20.6628 15.182 20.745 15.046 20.7751C14.91 20.8052 14.7675 20.781 14.6491 20.7076C14.5307 20.6342 14.4457 20.5173 14.4123 20.3821L13.7931 17.5997H11.8064L11.1872 20.3821C11.156 20.5199 11.0716 20.6397 10.9524 20.7157C10.8333 20.7916 10.689 20.8174 10.5509 20.7874C10.4129 20.7567 10.2926 20.6724 10.2166 20.5532C10.1406 20.4339 10.1151 20.2893 10.1456 20.1512ZM30.4 24.6818V22.9336C30.4 22.3469 29.92 21.8669 29.3333 21.8669H25.6V22.9336H29.3333V24.6818C29.016 24.8669 28.8 25.2072 28.8 25.6002C28.8 26.1885 29.2784 26.6669 29.8667 26.6669C30.4549 26.6669 30.9333 26.1885 30.9333 25.6002C30.9333 25.2072 30.7173 24.8669 30.4 24.6818ZM15.4667 25.6002V29.4818C15.1493 29.6669 14.9333 30.0072 14.9333 30.4002C14.9333 30.9885 15.4117 31.4669 16 31.4669C16.5883 31.4669 17.0667 30.9885 17.0667 30.4002C17.0667 30.0072 16.8507 29.6669 16.5333 29.4818V25.6002H15.4667ZM5.33333 2.13356C5.33333 2.72183 5.81173 3.20023 6.39999 3.20023C6.79306 3.20023 7.13333 2.98423 7.31839 2.66689H9.06666V6.40023H10.1333V2.66689C10.1333 2.08023 9.65333 1.60023 9.06666 1.60023H7.31839C7.13333 1.28289 6.79306 1.06689 6.39999 1.06689C5.81173 1.06689 5.33333 1.54529 5.33333 2.13356ZM1.59999 22.9336V24.6818C1.28266 24.8669 1.06666 25.2072 1.06666 25.6002C1.06666 26.1885 1.54506 26.6669 2.13333 26.6669C2.72159 26.6669 3.19999 26.1885 3.19999 25.6002C3.19999 25.2072 2.98399 24.8669 2.66666 24.6818V22.9336H6.39999V21.8669H2.66666C2.07999 21.8669 1.59999 22.3469 1.59999 22.9336ZM1.59999 17.0669C1.99306 17.0669 2.33333 16.8509 2.51839 16.5336H6.39999V15.4669H2.51839C2.33333 15.1496 1.99306 14.9336 1.59999 14.9336C1.01173 14.9336 0.533325 15.412 0.533325 16.0002C0.533325 16.5885 1.01173 17.0669 1.59999 17.0669ZM29.4816 15.4669H25.6V16.5336H29.4816C29.6667 16.8509 30.0069 17.0669 30.4 17.0669C30.9883 17.0669 31.4667 16.5885 31.4667 16.0002C31.4667 15.412 30.9883 14.9336 30.4 14.9336C30.0069 14.9336 29.6667 15.1496 29.4816 15.4669ZM1.59999 7.31863V9.06689C1.59999 9.65356 2.07999 10.1336 2.66666 10.1336H6.39999V9.06689H2.66666V7.31863C2.98399 7.13356 3.19999 6.79329 3.19999 6.40023C3.19999 5.81196 2.72159 5.33356 2.13333 5.33356C1.54506 5.33356 1.06666 5.81196 1.06666 6.40023C1.06666 6.79329 1.28266 7.13356 1.59999 7.31863ZM29.3333 7.31863V9.06689H25.6V10.1336H29.3333C29.92 10.1336 30.4 9.65356 30.4 9.06689V7.31863C30.7173 7.13356 30.9333 6.79329 30.9333 6.40023C30.9333 5.81196 30.4549 5.33356 29.8667 5.33356C29.2784 5.33356 28.8 5.81196 28.8 6.40023C28.8 6.79329 29.016 7.13356 29.3333 7.31863ZM2.66666 12.8002C2.66666 13.0936 2.90666 13.3336 3.19999 13.3336H6.39999V12.2669H3.19999C2.90666 12.2669 2.66666 12.5069 2.66666 12.8002ZM2.66666 19.2002C2.66666 19.4936 2.90666 19.7336 3.19999 19.7336H6.39999V18.6669H3.19999C2.90666 18.6669 2.66666 18.9069 2.66666 19.2002ZM5.33333 29.8669C5.33333 30.4552 5.81173 30.9336 6.39999 30.9336C6.79306 30.9336 7.13333 30.7176 7.31839 30.4002H9.06666C9.65333 30.4002 10.1333 29.9202 10.1333 29.3336V25.6002H9.06666V29.3336H7.31839C7.13333 29.0162 6.79306 28.8002 6.39999 28.8002C5.81173 28.8002 5.33333 29.2786 5.33333 29.8669ZM12.8 29.3336C13.0933 29.3336 13.3333 29.0936 13.3333 28.8002V25.6002H12.2667V28.8002C12.2667 29.0936 12.5067 29.3336 12.8 29.3336ZM19.2 29.3336C19.4933 29.3336 19.7333 29.0936 19.7333 28.8002V25.6002H18.6667V28.8002C18.6667 29.0936 18.9067 29.3336 19.2 29.3336ZM29.3333 19.2002C29.3333 18.9069 29.0933 18.6669 28.8 18.6669H25.6V19.7336H28.8C29.0933 19.7336 29.3333 19.4936 29.3333 19.2002ZM29.3333 12.8002C29.3333 12.5069 29.0933 12.2669 28.8 12.2669H25.6V13.3336H28.8C29.0933 13.3336 29.3333 13.0936 29.3333 12.8002ZM26.6667 2.13356C26.6667 1.54529 26.1883 1.06689 25.6 1.06689C25.2069 1.06689 24.8667 1.28289 24.6816 1.60023H22.9333C22.3467 1.60023 21.8667 2.08023 21.8667 2.66689V6.40023H22.9333V2.66689H24.6816C24.8667 2.98423 25.2069 3.20023 25.6 3.20023C26.1883 3.20023 26.6667 2.72183 26.6667 2.13356ZM18.6667 3.20023V6.40023H19.7333V3.20023C19.7333 2.90689 19.4933 2.66689 19.2 2.66689C18.9067 2.66689 18.6667 2.90689 18.6667 3.20023ZM12.2667 3.20023V6.40023H13.3333V3.20023C13.3333 2.90689 13.0933 2.66689 12.8 2.66689C12.5067 2.66689 12.2667 2.90689 12.2667 3.20023Z" fill="#0271E8"/>
</g>
<defs>
<clipPath id="clip0_6040_1298">
<rect width="32" height="32" fill="white"/>
</clipPath>
</defs>
</svg>
