<svg width="56" height="56" viewBox="0 0 56 56" fill="none" xmlns="http://www.w3.org/2000/svg">
<g clip-path="url(#clip0_6040_608)">
<path fill-rule="evenodd" clip-rule="evenodd" d="M17.8412 27.9982L12.9072 29.3202L16.2544 41.8123C16.4329 42.4785 17.1219 42.8763 17.7881 42.6978L20.303 42.024C20.9692 41.8455 21.3671 41.1564 21.1885 40.4902L17.8412 27.9982Z" fill="#B4D2D7"/>
<path fill-rule="evenodd" clip-rule="evenodd" d="M17.8412 27.9982L16.1949 28.4393L19.1011 39.2851C19.2796 39.9513 18.8817 40.6403 18.2156 40.8189L16.1375 41.3757L16.2545 41.8123C16.433 42.4785 17.122 42.8765 17.7882 42.6978L20.3031 42.024C20.9693 41.8455 21.3671 41.1564 21.1886 40.4902L17.8412 27.9982Z" fill="#9BB9C3"/>
<path fill-rule="evenodd" clip-rule="evenodd" d="M23.9228 19.8165C24.6928 22.6903 22.9715 25.6717 20.0977 26.4418L8.56084 29.5329C5.68701 30.3029 2.70566 28.5817 1.93566 25.7079C1.16566 22.834 2.8869 19.8527 5.76073 19.0827L17.2976 15.9914C20.1714 15.2213 23.1527 16.9427 23.9228 19.8165Z" fill="#64B5F6"/>
<path fill-rule="evenodd" clip-rule="evenodd" d="M23.8627 22.8079C23.3288 24.5253 21.9539 25.9452 20.0977 26.4426L8.5608 29.5339C5.68697 30.3039 2.70563 28.5826 1.93563 25.7088C1.4383 23.8527 1.98047 21.952 3.20088 20.6309C2.89783 21.6019 2.87696 22.639 3.14072 23.6214C3.91072 26.4952 6.89206 28.2166 9.76589 27.4465L21.3028 24.3552C22.2855 24.0924 23.1733 23.5558 23.8627 22.8079Z" fill="#42A5F5"/>
<path fill-rule="evenodd" clip-rule="evenodd" d="M40.1188 10.3091C43.1939 11.133 45.0188 14.2938 44.1948 17.3689C43.3709 20.444 40.2101 22.2689 37.135 21.445C34.0599 20.6211 32.235 17.4602 33.0589 14.385C33.8829 11.31 37.0438 9.48505 40.1188 10.3091Z" fill="#64B5F6"/>
<path fill-rule="evenodd" clip-rule="evenodd" d="M40.4045 10.3936C43.306 11.3312 44.9934 14.3904 44.1952 17.3692C43.3712 20.4444 40.2105 22.2692 37.1353 21.4452C36.2219 21.2005 35.4188 20.7495 34.7626 20.1558C34.8565 20.1861 34.9515 20.2142 35.0479 20.24C38.123 21.064 41.2838 19.2391 42.1078 16.164C42.687 14.0024 41.9572 11.7984 40.4045 10.3936Z" fill="#42A5F5"/>
<path fill-rule="evenodd" clip-rule="evenodd" d="M15.4976 13.6484L8.29786 15.5776C6.91613 15.9478 6.09111 17.3767 6.46135 18.7586L9.32993 29.4643C9.70016 30.846 11.1291 31.671 12.5109 31.3008L19.7106 29.3716L40.342 30.2925C40.8873 30.2733 41.3487 30.0304 41.6732 29.5918C41.9977 29.1531 42.095 28.6409 41.9538 28.1138L35.3895 3.61613C35.2483 3.08905 34.908 2.6941 34.4076 2.47644C33.9073 2.2589 33.3863 2.27924 32.9045 2.53529L15.4976 13.6484Z" fill="#64B5F6"/>
<path fill-rule="evenodd" clip-rule="evenodd" d="M6.46088 18.7549L6.46175 18.7585L9.33033 29.4642C9.70056 30.846 11.1294 31.671 12.5113 31.3007L19.7109 29.3716L40.3423 30.2924C40.8876 30.2733 41.349 30.0303 41.6735 29.5918C41.998 29.1532 42.0952 28.641 41.954 28.1139L41.5151 26.4758C41.6532 27 41.5554 27.5091 41.2325 27.9454C40.908 28.384 40.4466 28.627 39.9013 28.6461L19.2699 27.7253L12.0703 29.6544C10.6885 30.0247 9.25956 29.1996 8.88933 27.8179L6.46088 18.7549Z" fill="#42A5F5"/>
<path fill-rule="evenodd" clip-rule="evenodd" d="M19.0043 26.7352L16.2042 16.2848L15.4977 13.6484L8.29811 15.5776C6.91637 15.9478 6.09136 17.3767 6.46159 18.7585L6.49583 18.8863L9.29583 29.3365L9.33006 29.4642C9.70029 30.846 11.1293 31.6709 12.511 31.3007L13.3758 31.0689L18.3099 29.7468L19.7107 29.3714C19.4751 28.4928 19.2398 27.614 19.0043 26.7352Z" fill="#FFDA2D"/>
<path fill-rule="evenodd" clip-rule="evenodd" d="M7.58054 15.8926C6.64779 16.4851 6.16107 17.6374 6.46153 18.7589L6.49576 18.8866L9.29598 29.3368L9.33021 29.4645C9.70045 30.8463 11.1294 31.6712 12.5112 31.301L13.376 31.0692L18.31 29.7471L19.7109 29.3717L19.2698 27.7254L13.7164 29.2135C12.3346 29.5837 10.9057 28.7587 10.5354 27.377L7.66684 16.6712C7.59868 16.4176 7.56958 16.155 7.58054 15.8926Z" fill="#FFC700"/>
<path fill-rule="evenodd" clip-rule="evenodd" d="M31.9344 1.0855C33.5159 0.661782 35.1565 1.60897 35.5802 3.19042L42.3317 28.3871C42.7554 29.9686 41.8083 31.6092 40.2268 32.0329C38.6453 32.4567 37.0047 31.5095 36.581 29.928L29.8295 4.7313C29.4057 3.14984 30.3529 1.50922 31.9344 1.0855Z" fill="#FFDA2D"/>
<path fill-rule="evenodd" clip-rule="evenodd" d="M33.0215 1.00208C34.2074 1.13212 35.2542 1.97333 35.5803 3.19034L42.3318 28.3872C42.7555 29.9686 41.8084 31.6092 40.2268 32.033H40.2267C39.0097 32.3591 37.7578 31.8732 37.0522 30.9112C37.4074 30.9502 37.7749 30.9254 38.1393 30.8278C39.7209 30.404 40.6679 28.7634 40.2442 27.182L33.4928 1.98525C33.3982 1.6311 33.2383 1.29769 33.0215 1.00208Z" fill="#FFC700"/>
<path fill-rule="evenodd" clip-rule="evenodd" d="M52.2388 11.3253C52.4615 11.2689 52.6976 11.3025 52.8957 11.4188C53.0939 11.5351 53.2383 11.7249 53.2976 11.9469C53.3569 12.1689 53.3264 12.4053 53.2127 12.605C53.099 12.8046 52.9112 12.9515 52.69 13.0137L49.0086 14.0003C48.7859 14.0567 48.5498 14.0231 48.3517 13.9068C48.1535 13.7904 48.0091 13.6007 47.9498 13.3787C47.8905 13.1567 47.921 12.9203 48.0347 12.7206C48.1484 12.5209 48.3362 12.3741 48.5574 12.3119L52.2388 11.3253ZM52.6898 18.5645C52.9111 18.6267 53.0989 18.7736 53.2126 18.9732C53.3263 19.1729 53.3568 19.4094 53.2975 19.6314C53.2382 19.8534 53.0938 20.0431 52.8956 20.1594C52.6975 20.2757 52.4614 20.3093 52.2387 20.2529L48.5574 19.2666C48.3362 19.2044 48.1484 19.0575 48.0347 18.8578C47.921 18.6582 47.8905 18.4217 47.9498 18.1997C48.0091 17.9777 48.1535 17.788 48.3517 17.6717C48.5498 17.5553 48.7859 17.5217 49.0086 17.5782L52.6898 18.5645ZM48.2261 5.28167C48.3074 5.20042 48.4038 5.13597 48.51 5.092C48.6161 5.04802 48.7299 5.02539 48.8448 5.02539C48.9597 5.02539 49.0734 5.04802 49.1796 5.092C49.2857 5.13597 49.3822 5.20042 49.4634 5.28167C49.5446 5.3629 49.6091 5.45935 49.6531 5.56549C49.697 5.67163 49.7197 5.7854 49.7197 5.90029C49.7197 6.01519 49.697 6.12895 49.6531 6.2351C49.6091 6.34124 49.5446 6.43769 49.4634 6.51892L46.7685 9.21381C46.6873 9.29506 46.5908 9.35951 46.4847 9.40348C46.3785 9.44746 46.2648 9.47009 46.1499 9.47009C46.035 9.47009 45.9212 9.44746 45.8151 9.40348C45.7089 9.35951 45.6125 9.29506 45.5313 9.21381C45.45 9.13258 45.3856 9.03613 45.3416 8.92999C45.2976 8.82384 45.275 8.71008 45.275 8.59519C45.275 8.48029 45.2976 8.36653 45.3416 8.26038C45.3856 8.15424 45.45 8.05779 45.5313 7.97656L48.2261 5.28167ZM41.4888 44.8568L35.712 54.8623C35.5814 55.0886 35.2468 55.0588 35.1581 54.8131L33.6029 50.5011L29.091 51.3103C28.8338 51.3563 28.6408 51.0815 28.7714 50.8553L35.3436 39.4717L42.4966 41.8957L46.8347 38.0874L54.2061 50.8553C54.3367 51.0815 54.1437 51.3563 53.8865 51.3103L49.3745 50.5011L47.8193 54.8131C47.7307 55.0588 47.396 55.0886 47.2654 54.8623L41.4888 44.8568Z" fill="#FFDA2D"/>
<path fill-rule="evenodd" clip-rule="evenodd" d="M41.4888 44.8561L35.712 54.8616C35.5814 55.0879 35.2468 55.058 35.1581 54.8124L33.6029 50.5004L29.091 51.3095C28.8338 51.3556 28.6408 51.0807 28.7714 50.8545L29.8545 48.9785L33.603 48.3063L35.1582 52.6184C35.2469 52.8641 35.5815 52.8939 35.7121 52.6676L41.4889 42.6621L47.2655 52.6676C47.3961 52.8938 47.7307 52.8641 47.8194 52.6184L49.3746 48.3063L53.1231 48.9785L54.2061 50.8545C54.3367 51.0807 54.1437 51.3556 53.8865 51.3095L49.3745 50.5004L47.8193 54.8124C47.7307 55.058 47.396 55.0879 47.2654 54.8616L41.4888 44.8561Z" fill="#FFC700"/>
<path fill-rule="evenodd" clip-rule="evenodd" d="M51.0807 42.5125C52.8415 41.9028 53.6483 39.4201 52.5821 37.8918C52.1334 37.2489 52.1334 36.4346 52.582 35.7917C53.6483 34.2635 52.8416 31.7807 51.0807 31.1711C50.3399 30.9146 49.8612 30.2559 49.8462 29.472C49.8106 27.6089 47.6986 26.0744 45.9157 26.6162C45.1656 26.8442 44.3911 26.5926 43.9184 25.9673C42.7945 24.481 40.1839 24.4809 39.0598 25.9672C38.587 26.5925 37.8126 26.8443 37.0625 26.6162C35.2796 26.0744 33.1676 27.6088 33.1318 29.4719C33.1168 30.2557 32.6383 30.9146 31.8974 31.1709C30.1366 31.7805 29.3297 34.2634 30.3959 35.7916C30.8444 36.4345 30.8446 37.2488 30.396 37.8917C29.3297 39.4199 30.1364 41.9028 31.8973 42.5125C32.6381 42.769 33.1168 43.4276 33.1318 44.2114C33.1674 46.0745 35.2794 47.609 37.0623 47.0672C37.8124 46.8392 38.5869 47.0908 39.0597 47.7161C40.1836 49.2025 42.7943 49.2025 43.9183 47.7161C44.3911 47.0908 45.1655 46.8391 45.9156 47.0672C47.6985 47.609 49.8105 46.0745 49.8462 44.2114C49.8612 43.4276 50.3398 42.7688 51.0807 42.5125Z" fill="#FC685B"/>
<path fill-rule="evenodd" clip-rule="evenodd" d="M51.0804 42.5129C52.8412 41.9032 53.648 39.4205 52.5818 37.8922C52.1331 37.2493 52.1331 36.435 52.5817 35.7921C53.5558 34.396 52.9666 32.2035 51.515 31.37C52.0266 32.3639 52.0619 33.6257 51.4217 34.5435C50.973 35.1864 50.9731 36.0007 51.4218 36.6436C52.488 38.1719 51.6812 40.6546 49.9204 41.2642C49.1795 41.5207 48.701 42.1795 48.686 42.9633C48.6503 44.8264 46.5383 46.3609 44.7554 45.8191C44.0053 45.591 43.2309 45.8427 42.7581 46.468C41.6341 47.9543 39.0235 47.9543 37.8995 46.4679C37.4267 45.8426 36.6522 45.591 35.9021 45.8189C35.0746 46.0704 34.1763 45.8744 33.4474 45.406C34.1068 46.6629 35.6828 47.4866 37.0621 47.0675C37.8122 46.8395 38.5867 47.0911 39.0596 47.7164C40.1835 49.2028 42.7942 49.2028 43.9181 47.7164C44.3909 47.0911 45.1653 46.8394 45.9154 47.0675C47.6983 47.6093 49.8103 46.0748 49.846 44.2117C49.8609 43.428 50.3395 42.7692 51.0804 42.5129ZM49.907 29.918C49.8691 29.7724 49.8486 29.6228 49.8459 29.4723C49.8269 28.4739 49.2114 27.5702 48.3701 27.0294C48.563 27.3972 48.6778 27.8019 48.6859 28.2237C48.7007 29.0029 49.1738 29.6584 49.907 29.918ZM30.3026 41.0656C30.6429 41.7267 31.1937 42.2693 31.8971 42.5128L31.9104 42.5175C31.7581 41.9359 31.3322 41.4702 30.737 41.2641C30.5862 41.2118 30.4408 41.1453 30.3026 41.0656Z" fill="#F35244"/>
<path d="M42.1426 44.4666C46.3661 44.1149 49.5049 40.4059 49.1532 36.1824C48.8015 31.9589 45.0925 28.8201 40.869 29.1718C36.6455 29.5235 33.5067 33.2324 33.8584 37.456C34.2101 41.6795 37.9191 44.8183 42.1426 44.4666Z" fill="#EFF4F7"/>
<path fill-rule="evenodd" clip-rule="evenodd" d="M41.4891 29.168C43.4096 29.168 45.1654 29.8735 46.5114 31.0395C45.3898 30.3977 44.0907 30.0307 42.7058 30.0307C38.4676 30.0307 35.0319 33.4664 35.0319 37.7046C35.0319 40.0222 36.0593 42.0998 37.6836 43.5069C35.3727 42.1846 33.8154 39.6952 33.8154 36.8418C33.8153 32.6037 37.2509 29.168 41.4891 29.168Z" fill="#E2E3E3"/>
<path fill-rule="evenodd" clip-rule="evenodd" d="M41.4891 32.1729L42.7613 35.2859L46.115 35.5337L43.5475 37.7057L44.3481 40.972L41.4891 39.2012L38.6302 40.972L39.4307 37.7057L36.8632 35.5337L40.217 35.2859L41.4891 32.1729Z" fill="#FFDA2D"/>
<path fill-rule="evenodd" clip-rule="evenodd" d="M41.4892 32.1729L41.9073 33.1959L40.8213 35.8535L37.5289 36.0969L36.8632 35.5338L40.2171 35.286L41.4892 32.1729ZM42.7614 35.2859L46.1153 35.5337L45.5467 36.0146L42.9818 35.8251L42.7614 35.2859ZM39.5066 40.4291L38.6302 40.972L39.4308 37.7057L40.0465 38.2265L39.5066 40.4291Z" fill="#FFC700"/>
</g>
<defs>
<clipPath id="clip0_6040_608">
<rect width="56" height="56" fill="white"/>
</clipPath>
</defs>
</svg>
