<svg width="32" height="32" viewBox="0 0 32 32" fill="none" xmlns="http://www.w3.org/2000/svg">
<g clip-path="url(#clip0_6040_1267)">
<path d="M9.02118 16.2428L8.12993 17.0792C7.75049 17.4353 7.49618 17.8792 7.3768 18.3542H1.35761C1.26268 18.3542 1.18093 18.3164 1.11943 18.244C1.05799 18.1716 1.0338 18.0849 1.04918 17.9912C1.56055 14.8679 4.27161 12.4846 7.53949 12.4846C8.61018 12.4846 9.62105 12.7404 10.5144 13.1943C10.0061 13.5538 9.6318 14.0938 9.48049 14.7399L9.20174 15.9299C9.17055 16.063 9.12086 16.1492 9.02118 16.2428ZM30.951 17.9912C30.4396 14.8679 27.7286 12.4846 24.4607 12.4846C23.3901 12.4846 22.3792 12.7405 21.4858 13.1943C21.9941 13.5539 22.3684 14.0939 22.5197 14.7399L22.7984 15.9299C22.8296 16.063 22.8794 16.1492 22.9791 16.2427L23.8702 17.0791C24.2497 17.4352 24.504 17.8791 24.6234 18.3541H30.6426C30.6879 18.3543 30.7328 18.3446 30.774 18.3257C30.8153 18.3067 30.8518 18.279 30.8812 18.2444C30.9106 18.2099 30.9321 18.1693 30.9441 18.1255C30.9562 18.0818 30.9585 18.0359 30.951 17.9912ZM16.0002 8.4865C18.1538 8.4865 19.8997 6.74062 19.8997 4.587C19.8997 2.43337 18.1538 0.6875 16.0002 0.6875C13.8465 0.6875 12.1007 2.43337 12.1007 4.587C12.1007 6.74062 13.8465 8.4865 16.0002 8.4865ZM21.1849 26.0728C21.0969 26.1207 21.0353 26.1803 20.9747 26.273L20.3057 27.2959C19.743 28.1561 18.7588 28.5953 17.7684 28.4621L19.0565 31.2289C19.1059 31.335 19.2538 31.3416 19.3126 31.2405L20.4306 29.3166L22.6226 29.6996C22.738 29.7198 22.8281 29.6023 22.7786 29.4961L21.1849 26.0728ZM18.2188 19.057L16.9886 19.0594C16.847 19.0596 16.7266 18.9721 16.683 18.8373L16.3051 17.6666C16.2102 17.3727 15.7901 17.3728 15.6952 17.6666L15.3173 18.8374C15.2738 18.9722 15.1533 19.0597 15.0117 19.0594L13.7815 19.057C13.4709 19.0564 13.3414 19.455 13.593 19.6371L14.5896 20.3583C14.7044 20.4414 14.7504 20.5829 14.7064 20.7176L14.324 21.8868C14.2276 22.1816 14.5669 22.4281 14.8175 22.2453L15.8114 21.5203C15.9258 21.4369 16.0747 21.4369 16.1891 21.5203L17.1829 22.2453C17.4336 22.4281 17.7728 22.1816 17.6764 21.8868L17.2941 20.7176C17.25 20.5829 17.296 20.4414 17.4107 20.3583L18.4074 19.6371C18.6589 19.4551 18.5294 19.0564 18.2188 19.057ZM23.1861 17.8082C23.7197 18.309 23.8542 19.0719 23.5241 19.7251C22.6646 21.4255 22.7285 21.063 22.9546 22.9549C23.0415 23.6816 22.6541 24.3524 21.9814 24.6406C20.2299 25.3906 20.5119 25.1541 19.469 26.7486C19.0684 27.3611 18.3405 27.6261 17.6399 27.4144C15.8161 26.8632 16.1842 26.8631 14.3603 27.4144C13.6598 27.6261 12.9318 27.3611 12.5312 26.7486C11.4884 25.1541 11.7704 25.3906 10.0189 24.6406C9.34611 24.3524 8.9588 23.6816 9.04561 22.9549C9.27174 21.063 9.33574 21.4255 8.47611 19.7251C8.14599 19.0719 8.28049 18.309 8.81411 17.8082C10.2034 16.5042 10.0194 16.8231 10.4539 14.9679C10.6208 14.2554 11.2143 13.7574 11.945 13.7168C13.8474 13.6109 13.5015 13.7368 15.0269 12.5951C15.6127 12.1565 16.3874 12.1565 16.9733 12.5951C18.4987 13.7368 18.1527 13.6109 20.0552 13.7168C20.7859 13.7574 21.3794 14.2554 21.5462 14.9679C21.9809 16.8231 21.7969 16.5043 23.1861 17.8082ZM20.2706 19.8763C20.2706 17.5178 18.3587 15.6059 16.0001 15.6059C13.6416 15.6059 11.7297 17.5178 11.7297 19.8763C11.7297 22.2348 13.6416 24.1468 16.0001 24.1468C18.3586 24.1468 20.2706 22.2348 20.2706 19.8763ZM11.0256 26.273C10.9649 26.1803 10.9034 26.1208 10.8154 26.0728L9.22168 29.4961C9.17218 29.6023 9.26224 29.7197 9.37768 29.6996L11.5697 29.3166L12.6877 31.2404C12.7465 31.3416 12.8945 31.3349 12.9438 31.2288L14.2319 28.4621C12.4811 28.6974 11.8242 27.4942 11.0256 26.273ZM24.4607 11.8596C26.2974 11.8596 27.7862 10.3707 27.7862 8.53406C27.7862 6.69744 26.2974 5.20856 24.4607 5.20856C22.6241 5.20856 21.1352 6.6975 21.1352 8.53406C21.1352 10.3707 22.6241 11.8596 24.4607 11.8596ZM10.0533 11.9136C10.6361 12.1189 11.1917 12.3947 11.7076 12.7349C12.1426 12.6813 13.1599 12.7438 13.4494 12.5271L14.4279 11.7948C15.3689 11.0904 16.6316 11.0904 17.5726 11.7948L18.5511 12.5271C18.8407 12.7439 19.8576 12.6811 20.2928 12.7349C20.8087 12.3948 21.3642 12.1189 21.9471 11.9136C20.5325 10.2023 18.3939 9.1115 16.0002 9.1115C13.6064 9.1115 11.4678 10.2022 10.0533 11.9136ZM7.53961 11.8596C9.37624 11.8596 10.8651 10.3707 10.8651 8.53406C10.8651 6.69744 9.37618 5.20856 7.53961 5.20856C5.70299 5.20856 4.21405 6.6975 4.21405 8.53406C4.21405 10.3707 5.70299 11.8596 7.53961 11.8596Z" fill="#0271E8"/>
</g>
<defs>
<clipPath id="clip0_6040_1267">
<rect width="32" height="32" fill="white"/>
</clipPath>
</defs>
</svg>
