<svg width="29" height="32" viewBox="0 0 29 32" fill="none" xmlns="http://www.w3.org/2000/svg">
<path d="M14.6406 20.4678C15.9944 20.4678 17.22 19.9184 18.1075 19.0328C18.995 18.1453 19.5425 16.919 19.5425 15.5659C19.5425 14.2128 18.995 12.9865 18.1075 12.099C17.22 11.2134 15.9937 10.664 14.6406 10.664C13.2875 10.664 12.0613 11.2134 11.175 12.099C10.2875 12.9865 9.73812 14.2128 9.73812 15.5659C9.73812 16.919 10.2875 18.1453 11.175 19.0328C12.0613 19.9184 13.2869 20.4678 14.6406 20.4678ZM13.2413 13.069C13.4875 12.8709 13.7937 12.7234 14.1344 12.649V12.0484C14.1344 11.7684 14.3613 11.5415 14.6413 11.5415C14.9231 11.5415 15.15 11.7684 15.15 12.0484V12.649C15.4387 12.7128 15.7044 12.8296 15.9294 12.9859C16.31 13.2496 16.5763 13.629 16.6556 14.0628C16.7069 14.3371 16.5244 14.6015 16.25 14.6528C15.9738 14.7021 15.7094 14.5196 15.66 14.2453C15.63 14.0821 15.5181 13.9315 15.3538 13.8184C15.1663 13.689 14.9181 13.6096 14.6413 13.6096C14.3381 13.6096 14.0675 13.7053 13.8756 13.8596C13.7162 13.9871 13.6169 14.1571 13.6169 14.3346C13.6169 14.5115 13.7162 14.6803 13.8756 14.8096C14.0669 14.964 14.3381 15.0578 14.6413 15.0578H14.6556C15.1837 15.0646 15.6675 15.2453 16.025 15.5328C16.42 15.8515 16.6663 16.2984 16.6663 16.7978C16.6663 17.2971 16.42 17.7459 16.025 18.0628C15.7787 18.2609 15.4725 18.4084 15.1338 18.4828V19.0834C15.1338 19.3634 14.905 19.5903 14.625 19.5903C14.345 19.5903 14.1162 19.3634 14.1162 19.0834V18.4828C13.8275 18.419 13.5619 18.3021 13.3387 18.1459C12.9581 17.8821 12.69 17.5028 12.6106 17.069C12.5613 16.7946 12.7419 16.5303 13.0181 16.479C13.2925 16.4296 13.5569 16.6121 13.6062 16.8865C13.6362 17.0496 13.75 17.2003 13.9125 17.3134C14.1 17.4428 14.3481 17.5221 14.625 17.5221C14.9281 17.5221 15.1987 17.4265 15.3906 17.2721C15.55 17.1446 15.6494 16.9746 15.6494 16.7971C15.6494 16.6203 15.55 16.4515 15.3906 16.3221C15.1994 16.1678 14.9281 16.074 14.625 16.074H14.6106C14.0844 16.0671 13.5988 15.8865 13.2413 15.599C12.8462 15.2803 12.6 14.8334 12.6 14.334C12.6 13.8346 12.8462 13.3859 13.2413 13.069ZM25.3519 15.5634C25.3519 16.0065 25.1431 16.3853 24.7687 16.6209L23.9056 17.1646C23.3531 17.5134 23.1631 18.224 23.4662 18.8034L23.9431 19.7121C24.1488 20.1034 24.1381 20.5378 23.9181 20.9203C23.6969 21.3009 23.3244 21.5259 22.8838 21.5421L21.865 21.5828C21.2131 21.6096 20.6919 22.1284 20.6656 22.7821L20.6231 23.8078C20.6056 24.249 20.3806 24.619 19.9975 24.8409C19.615 25.0609 19.1806 25.0696 18.7913 24.864L17.8875 24.389C17.31 24.084 16.5994 24.274 16.2488 24.8265L15.6994 25.6946C15.4637 26.0665 15.0831 26.2759 14.6419 26.2759C14.4875 26.2759 14.3425 26.2509 14.2081 26.2015C14.1781 26.049 14.1319 25.9021 14.0719 25.764C14.3112 25.4328 14.4544 25.0271 14.4544 24.5878C14.4544 23.4803 13.5506 22.5771 12.4438 22.5771H10.4187C10.5819 21.6153 10.5531 20.524 10.3175 19.6059C10.3619 19.654 10.4081 19.7015 10.4556 19.7496C11.5275 20.8215 13.0069 21.484 14.64 21.484C16.275 21.484 17.7544 20.8215 18.8244 19.7496C19.8962 18.6796 20.5588 17.1984 20.5588 15.5653C20.5588 13.9315 19.8962 12.4509 18.8244 11.3809C17.7544 10.309 16.275 9.64652 14.64 9.64652C13.0062 9.64652 11.5275 10.309 10.4556 11.3809C9.38562 12.4509 8.72313 13.9321 8.72313 15.5653C8.72313 16.3271 8.86687 17.0553 9.12875 17.7234C7.86562 16.9278 6.19313 17.899 6.4075 19.6953C6.42 20.4571 6.16625 20.9534 5.79437 21.3696C5.62063 21.2634 5.47375 21.1128 5.36562 20.9234C5.14437 20.539 5.135 20.1065 5.34062 19.7153L5.81563 18.8134C6.12063 18.2359 5.93062 17.5253 5.37813 17.1746L4.51 16.6253C4.13813 16.3878 3.92875 16.009 3.92875 15.5678C3.92875 15.1246 4.13937 14.7459 4.51312 14.5103L5.37437 13.9665C5.64071 13.7991 5.83408 13.5373 5.91588 13.2335C5.99768 12.9298 5.96187 12.6063 5.81563 12.3278L5.33875 11.419C5.13312 11.0278 5.14187 10.5934 5.36375 10.2128C5.585 9.83027 5.95563 9.60527 6.39688 9.58902L7.41562 9.5484C8.06938 9.5234 8.59 9.00277 8.61687 8.3509L8.65938 7.3234C8.67688 6.88215 8.90187 6.51215 9.285 6.29027C9.6675 6.0709 10.1 6.06152 10.4913 6.26715L11.3931 6.74215C11.9725 7.04715 12.6831 6.85715 13.0319 6.30465L13.5831 5.43652C13.8188 5.06465 14.1981 4.85527 14.6406 4.85527C15.0819 4.85527 15.4606 5.06402 15.6963 5.4384L16.24 6.3009C16.4073 6.56737 16.6692 6.76073 16.9731 6.84222C17.2771 6.9237 17.6006 6.88729 17.8787 6.74027L18.7894 6.2634C19.1794 6.05965 19.6131 6.0684 19.9956 6.29027C20.3781 6.51152 20.6012 6.88215 20.6194 7.3234L20.6581 8.34215C20.6703 8.65653 20.8005 8.95478 21.0228 9.17742C21.2451 9.40006 21.5431 9.53074 21.8575 9.5434L22.8831 9.5859C23.3244 9.6034 23.6963 9.82715 23.9163 10.2115C24.1356 10.594 24.145 11.0265 23.9394 11.4178L23.4644 12.3196C23.1594 12.8971 23.3494 13.6078 23.9019 13.9584L24.77 14.5078C25.145 14.7434 25.3538 15.1221 25.3519 15.5634ZM12.4438 25.5821H12.2331C12.7787 25.5821 13.2269 26.0284 13.2269 26.5759C13.2269 27.1215 12.7787 27.5696 12.2331 27.5696H12.1019C12.6494 27.5696 13.0956 28.0159 13.0956 28.5634C13.0956 29.109 12.6494 29.5571 12.1019 29.5571H11.7119C12.2594 29.5571 12.7056 30.0034 12.7056 30.5509C12.7056 31.0965 12.2594 31.5446 11.7119 31.5446H5.83687C5.67188 31.5446 5.53188 31.5178 5.38 31.4615L4.52063 31.139C4.48688 31.1265 4.45312 31.1159 4.42125 31.1053V23.9915C4.57562 23.9115 4.71187 23.8003 4.83063 23.6565C5.78188 22.4996 7.49187 21.9803 7.4225 19.619C7.25437 18.4553 8.36687 18.0228 8.985 19.0028C9.68125 20.1028 9.655 22.4646 9.04 23.5946H12.4431C12.9906 23.5946 13.4369 24.0409 13.4369 24.5884C13.4375 25.134 12.9913 25.5821 12.4438 25.5821ZM3.40688 23.8371V31.349C3.40688 31.7071 3.1125 32.0009 2.755 32.0009H0.65C0.29375 32.0009 0 31.7065 0 31.349V23.8371C0 23.479 0.294375 23.1871 0.65 23.1871H2.755C3.1125 23.1871 3.40688 23.479 3.40688 23.8371ZM14.1338 2.21777V0.507773C14.1338 0.227773 14.3606 -0.000976562 14.6406 -0.000976562C14.9225 -0.000976562 15.1494 0.227773 15.1494 0.507773V2.21715C15.1494 2.49902 14.9225 2.7259 14.6406 2.7259C14.3606 2.7259 14.1338 2.49965 14.1338 2.21777ZM20.8769 3.75402L21.7306 2.27277C21.7981 2.15693 21.9085 2.07239 22.038 2.03751C22.1674 2.00264 22.3054 2.02025 22.4219 2.08652C22.4796 2.11961 22.5302 2.16376 22.5707 2.21644C22.6113 2.26911 22.6411 2.32928 22.6585 2.3935C22.6758 2.45771 22.6802 2.52471 22.6716 2.59065C22.6629 2.65659 22.6414 2.72018 22.6081 2.77777L21.7544 4.25902C21.6144 4.50027 21.3063 4.58527 21.0631 4.44527C20.82 4.30652 20.7369 3.99652 20.8769 3.75402ZM27.935 8.47527L26.4538 9.3309C26.3961 9.36421 26.3324 9.38581 26.2663 9.39448C26.2003 9.40314 26.1332 9.3987 26.0689 9.3814C26.0045 9.3641 25.9443 9.33428 25.8915 9.29366C25.8387 9.25303 25.7944 9.2024 25.7612 9.14465C25.6213 8.9034 25.7044 8.5934 25.9456 8.4534L27.4269 7.59777C27.6694 7.45777 27.9794 7.5409 28.1194 7.78215C28.2594 8.02527 28.1781 8.33527 27.935 8.47527ZM6.67375 2.77902C6.53375 2.53652 6.61687 2.22652 6.85812 2.08652C7.10062 1.94652 7.41062 2.02965 7.55062 2.2709L8.40625 3.75215C8.54625 3.99465 8.46313 4.30465 8.22188 4.44465C7.97938 4.58465 7.66937 4.5034 7.52938 4.26027L6.67375 2.77902ZM3.52 9.14465C3.38 9.38715 3.07 9.4709 2.8275 9.3309L1.34812 8.47527C1.10562 8.33527 1.02188 8.02527 1.16188 7.78277C1.30375 7.54152 1.61375 7.4584 1.85437 7.5984L3.33563 8.45402C3.3932 8.48715 3.44366 8.53132 3.4841 8.58401C3.52455 8.63669 3.55419 8.69685 3.57133 8.76102C3.58846 8.8252 3.59274 8.89212 3.58394 8.95796C3.57513 9.02379 3.5534 9.08724 3.52 9.14465Z" fill="#0271E8"/>
</svg>
