<svg width="30" height="29" viewBox="0 0 30 29" fill="none" xmlns="http://www.w3.org/2000/svg">
<path d="M12.8269 19.3849L15.9555 16.5953L17.2844 17.6491L14.8448 21.4576L12.8269 19.3849H12.8269ZM17.8226 17.9676L15.1586 22.1264C15.1332 22.166 15.0992 22.1993 15.0591 22.224C15.019 22.2486 14.9738 22.2638 14.927 22.2686C14.8802 22.2733 14.8329 22.2674 14.7887 22.2513C14.7444 22.2353 14.7044 22.2094 14.6716 22.1757L14.1178 21.6069L13.6329 22.3426L14.004 25.4371H16.2018L19.1003 18.4779C18.6733 18.3107 18.2474 18.1405 17.8226 17.9676ZM10.0787 22.1757C10.0459 22.2095 10.0059 22.2353 9.96167 22.2514C9.91744 22.2675 9.87015 22.2734 9.82333 22.2687C9.77651 22.2639 9.73136 22.2486 9.69126 22.224C9.65116 22.1994 9.61715 22.166 9.59175 22.1264L6.92769 17.9676C6.50296 18.1406 6.07706 18.3107 5.65 18.4779L8.5485 25.4371H10.7463L11.1174 22.3426L10.6326 21.6069L10.0787 22.1757ZM5.97762 7.21369C5.94362 7.22031 5.90637 7.23581 5.86469 7.30294C5.749 7.48938 5.90788 8.08694 5.99319 8.408C6.03862 8.57881 6.0815 8.74019 6.10256 8.87219L6.10444 8.88394C6.16294 9.24969 6.21812 9.59506 6.299 9.85487C6.39356 10.1587 6.47594 10.1873 6.47675 10.1876C6.47794 10.1878 6.62075 10.2155 7.00806 9.83781C6.81219 8.921 6.70519 8.05994 6.64931 7.4795C6.23931 7.20419 6.04488 7.20031 5.97756 7.21375L5.97762 7.21369ZM6.24657e-05 23.4923V25.4371H7.8715L5.06819 18.7066C1.89919 19.954 6.24657e-05 20.796 6.24657e-05 23.4923ZM21.4202 22.3009C21.0241 21.9049 20.8808 21.4214 20.982 20.8229C21.0478 20.4343 20.9013 20.0807 20.5801 19.8526C20.1714 19.5623 19.9367 19.2092 19.8671 18.7796C19.8055 18.7552 19.7446 18.7311 19.6821 18.7065L16.8788 25.4371H22.8925L23.0254 22.7254C22.9828 22.7274 22.9403 22.732 22.8983 22.739C22.2996 22.8406 21.8162 22.6972 21.4202 22.3009ZM11.7186 22.5787L11.3759 25.4371H13.3746L13.0319 22.5787H11.7186ZM11.6097 21.9537H13.1409L13.6716 21.1484L12.3753 19.8169L11.079 21.1484L11.6097 21.9537ZM26.5786 23.1409C26.227 23.6358 25.7838 23.8764 25.2236 23.8764C24.6633 23.8764 24.2201 23.6358 23.8686 23.1409C23.8058 23.052 23.7295 22.9735 23.6423 22.9084L23.3848 28.1617L25.0234 26.7954C25.0796 26.7485 25.1504 26.7229 25.2236 26.7229C25.2967 26.7229 25.3675 26.7485 25.4237 26.7954L27.0624 28.1617L26.8049 22.9084C26.7177 22.9735 26.6413 23.052 26.5786 23.1409ZM25.2236 17.1616C24.4869 17.1616 23.8876 17.7608 23.8876 18.4974C23.8876 19.2341 24.4869 19.8334 25.2236 19.8334C25.9602 19.8334 26.5595 19.2341 26.5595 18.4974C26.5595 17.7608 25.9602 17.1616 25.2236 17.1616ZM11.9236 19.3848L8.795 16.5952L7.46606 17.6491L9.90575 21.4576L11.9236 19.3848ZM11.4199 15.2582C11.6274 15.3399 11.7264 15.324 11.9237 15.2924C12.0406 15.2736 12.1859 15.2504 12.3719 15.2484H12.3786C12.5647 15.2504 12.71 15.2736 12.8267 15.2924C13.0241 15.3239 13.1232 15.3398 13.3307 15.2582C13.7553 15.0913 14.6498 14.2834 15.7234 13.0973C17.0006 11.6864 17.3969 8.32912 17.4902 7.29906C17.4766 6.96781 17.3637 6.40494 17.1093 5.89181C17.0072 6.05125 16.8645 6.22875 16.6649 6.41581C16.6238 6.45432 16.573 6.481 16.518 6.49303C16.463 6.50506 16.4057 6.50199 16.3523 6.48415C16.2988 6.46631 16.2512 6.43435 16.2145 6.39167C16.1777 6.34899 16.1532 6.29717 16.1434 6.24169C16.0164 5.51669 15.6966 4.89675 15.3519 4.66263C14.805 5.51519 13.6217 5.44125 12.3756 5.36319C10.5586 5.24975 8.5025 5.12125 7.26562 7.35669C7.36806 8.44894 7.77281 11.7117 9.02706 13.0973C10.101 14.2836 10.9954 15.0914 11.4198 15.2582H11.4199ZM29.9774 18.4975C29.9774 18.8549 29.8362 19.1078 29.5051 19.3429C28.9882 19.71 28.743 20.3022 28.8489 20.9272C28.9167 21.3275 28.8378 21.6061 28.5851 21.8589C28.3324 22.1117 28.0536 22.1906 27.6532 22.1228C27.0286 22.0173 26.436 22.2622 26.069 22.779C25.8337 23.1101 25.5809 23.2514 25.2236 23.2514C24.8662 23.2514 24.6133 23.1101 24.3781 22.7791C24.0674 22.3415 23.5954 22.0986 23.0784 22.0986C22.9849 22.0986 22.8897 22.1065 22.7939 22.1227C22.3936 22.1906 22.1149 22.1117 21.8621 21.8589C21.6094 21.6063 21.5305 21.3276 21.5982 20.9271C21.7041 20.3022 21.4589 19.71 20.9421 19.3429C20.6109 19.1077 20.4697 18.8549 20.4697 18.4975C20.4697 18.1401 20.6109 17.8872 20.9421 17.6521C21.4588 17.2851 21.7041 16.6928 21.5983 16.0677C21.5304 15.6675 21.6093 15.3889 21.8621 15.1361C22.1148 14.8833 22.3937 14.8046 22.7939 14.8722C23.419 14.9779 24.0111 14.7328 24.3781 14.216C24.6133 13.8849 24.8662 13.7436 25.2236 13.7436C25.5809 13.7436 25.8339 13.8849 26.069 14.216C26.436 14.7327 27.0282 14.9779 27.6532 14.8722C28.0535 14.8044 28.3322 14.8833 28.585 15.1361C28.8377 15.3887 28.9166 15.6674 28.8489 16.0678C28.743 16.6927 28.9882 17.285 29.5051 17.6521C29.8362 17.8872 29.9774 18.1401 29.9774 18.4975ZM27.1845 18.4975C27.1845 17.4163 26.3048 16.5366 25.2236 16.5366C24.1423 16.5366 23.2626 17.4163 23.2626 18.4975C23.2626 19.5787 24.1423 20.4584 25.2236 20.4584C26.3048 20.4584 27.1845 19.5787 27.1845 18.4975ZM12.4144 4.73944C13.8271 4.82781 14.6395 4.84381 14.9146 4.14931C14.9415 4.08132 14.9915 4.02493 15.0557 3.98997C15.1199 3.955 15.1944 3.94367 15.2661 3.95794C15.9276 4.08969 16.3682 4.79031 16.6054 5.51781C16.7197 5.32688 16.7362 5.20113 16.7382 5.17994C16.7441 5.11785 16.7685 5.05896 16.8082 5.01085C16.8479 4.96274 16.9011 4.9276 16.9609 4.90997C17.0207 4.89233 17.0844 4.89299 17.1439 4.91188C17.2033 4.93077 17.2558 4.96701 17.2944 5.01594C17.568 5.362 17.7711 5.78681 17.9071 6.2025C18.8887 3.55294 18.6556 2.38881 18.2518 1.87787C17.6644 1.1345 16.402 1.34944 15.7954 1.45269C15.7393 1.46219 15.6886 1.47081 15.6446 1.47769C15.578 1.48807 15.5097 1.47661 15.4501 1.445C15.3905 1.41338 15.3427 1.36333 15.3139 1.30231C14.9181 0.463938 13.6356 0 12.1767 0C11.2694 0 10.294 0.179375 9.421 0.559687C8.23919 1.0745 5.73575 2.66681 7.00863 6.58625C8.46325 4.49231 10.7266 4.63394 12.4145 4.73944H12.4144ZM14.9914 14.7562C14.4599 15.264 13.9378 15.6911 13.5592 15.8399C13.1929 15.9839 12.9565 15.9461 12.7278 15.9095C12.6223 15.8926 12.5133 15.8751 12.3751 15.8734C12.237 15.8751 12.1279 15.8926 12.0224 15.9095C11.9186 15.9261 11.8132 15.9429 11.6948 15.9429C11.5524 15.9429 11.3911 15.9186 11.191 15.8399C10.8126 15.6912 10.2904 15.2639 9.75875 14.756C9.698 15.4187 9.6125 15.9661 9.50319 16.3896L12.3751 18.9502L15.247 16.3896C15.1377 15.9663 15.0521 15.4192 14.9913 14.7561L14.9914 14.7562ZM17.7423 9.83787C18.1293 10.2154 18.272 10.1881 18.2735 10.1876C18.2743 10.1874 18.3568 10.1587 18.4513 9.85494C18.5321 9.59513 18.5874 9.24963 18.6458 8.884L18.6477 8.87212C18.6688 8.74025 18.7117 8.57887 18.7571 8.408C18.8424 8.08694 19.0013 7.48944 18.8856 7.30294C18.8439 7.23563 18.8052 7.22006 18.7728 7.21369C18.7051 7.20012 18.5108 7.20425 18.1011 7.47944C18.0451 8.05987 17.9381 8.921 17.7423 9.83787Z" fill="#0271E8"/>
</svg>
