<svg width="31" height="28" viewBox="0 0 31 28" fill="none" xmlns="http://www.w3.org/2000/svg">
<path fill-rule="evenodd" clip-rule="evenodd" d="M30.1176 6.14519C30.1176 6.70833 29.6582 7.16624 29.095 7.16624H24.4753L23.0148 8.68656C22.9715 8.73174 22.9156 8.76291 22.8544 8.77607C22.7932 8.78923 22.7295 8.78377 22.6714 8.76039C22.6133 8.73701 22.5636 8.69679 22.5286 8.64489C22.4935 8.593 22.4749 8.53181 22.4749 8.46921V7.16624H21.61C21.0469 7.16624 20.5874 6.70833 20.5874 6.14519V1.02268C20.5874 0.459545 21.0469 0 21.61 0H29.095C29.6582 0 30.1176 0.459545 30.1176 1.02268V6.14519ZM22.5801 4.10365H28.0352C28.3123 4.10365 28.5372 3.87878 28.5372 3.60169C28.5372 3.32467 28.3123 3.09973 28.0352 3.09973H22.5801C22.3031 3.09973 22.0781 3.32467 22.0781 3.60169C22.0781 3.87878 22.3031 4.10365 22.5801 4.10365ZM22.5801 2.48075H28.0352C28.3123 2.48075 28.5372 2.25581 28.5372 1.97879C28.5372 1.70177 28.3123 1.47683 28.0352 1.47683H22.5801C22.3031 1.47683 22.0781 1.70177 22.0781 1.97879C22.0781 2.25581 22.3031 2.48075 22.5801 2.48075ZM22.5801 5.72505H28.0352C28.3123 5.72505 28.5372 5.50011 28.5372 5.22309C28.5372 4.94607 28.3123 4.72113 28.0352 4.72113H22.5801C22.3031 4.72113 22.0781 4.94607 22.0781 5.22309C22.0781 5.50011 22.3031 5.72505 22.5801 5.72505ZM25.8856 10.9251C28.2213 10.9251 30.1176 12.8214 30.1176 15.1571C30.1176 17.4928 28.2213 19.3891 25.8856 19.3891C23.5499 19.3891 21.6536 17.4928 21.6536 15.1571C21.6536 12.8214 23.5499 10.9251 25.8856 10.9251ZM27.9344 15.0282L24.667 13.1418C24.6444 13.1287 24.6187 13.1218 24.5925 13.1217C24.5664 13.1217 24.5407 13.1286 24.5181 13.1417C24.4954 13.1547 24.4767 13.1735 24.4636 13.1962C24.4505 13.2188 24.4437 13.2445 24.4437 13.2707V17.0435C24.4437 17.0697 24.4505 17.0953 24.4636 17.118C24.4767 17.1406 24.4954 17.1594 24.5181 17.1725C24.5407 17.1856 24.5664 17.1924 24.5925 17.1924C24.6187 17.1924 24.6444 17.1855 24.667 17.1724L27.9344 15.286C27.957 15.273 27.9758 15.2542 27.9888 15.2315C28.0019 15.2089 28.0087 15.1832 28.0087 15.1571C28.0087 15.131 28.0019 15.1053 27.9888 15.0827C27.9758 15.0601 27.957 15.0413 27.9344 15.0282ZM13.2295 7.76452C11.6295 6.82378 8.68322 4.66478 8.64388 2.51169C8.60059 0.114573 11.2949 -0.973804 13.322 1.08875C15.3491 -0.971796 18.0454 0.114573 18.0021 2.51169C17.9627 4.66478 15.0165 6.82378 13.4165 7.76452C13.3884 7.78187 13.356 7.79106 13.323 7.79106C13.2899 7.79106 13.2576 7.78187 13.2295 7.76452ZM8.29615 22.7054L10.7452 26.9473L10.2062 27.2585C9.35867 27.7478 8.26691 27.4552 7.77768 26.6078L6.21746 23.9055L8.29615 22.7054ZM14.1818 12.0636C15.0698 11.6502 16.1422 11.9772 16.6412 12.8415C17.1403 13.7059 16.8873 14.7982 16.0853 15.3606L14.1818 12.0636ZM5.27993 15.5333C6.48608 14.2653 7.46609 12.7297 8.34139 11.2455L13.9024 20.8774C12.1872 20.887 10.4497 21.0296 8.74772 21.5211C8.72658 21.4573 5.42826 15.7302 5.42826 15.7302C5.38708 15.6587 5.33727 15.5926 5.27993 15.5333ZM17.2932 19.4605C17.4776 19.78 17.4732 20.1463 17.2821 20.4608C17.0909 20.7753 16.7708 20.9483 16.4015 20.9337C15.9598 20.9166 15.5145 20.8986 15.0674 20.8875L8.92335 10.2456C9.14867 9.85413 9.37581 9.46367 9.60476 9.07426C9.78923 8.76367 10.0967 8.58912 10.456 8.59169C10.8154 8.5942 11.1222 8.77202 11.3014 9.0826L17.2932 19.4605ZM7.79419 21.836L4.85031 23.5356C3.30854 24.4258 1.31964 23.891 0.430735 22.3514C-0.458112 20.8118 0.0731504 18.822 1.61499 17.9318L4.55886 16.2322L7.79419 21.836ZM15.9438 10.1015C15.8721 10.3691 15.5965 10.5281 15.329 10.4564C15.2004 10.4219 15.0908 10.3378 15.0243 10.2225C14.9577 10.1072 14.9397 9.97022 14.974 9.84163L15.4532 8.05352C15.5249 7.78591 15.8003 7.62686 16.0679 7.69857C16.3356 7.77029 16.4945 8.04574 16.4229 8.31335L15.9438 10.1015ZM18.4669 15.9179C18.3384 15.8832 18.2289 15.799 18.1625 15.6836C18.096 15.5683 18.0781 15.4313 18.1126 15.3027C18.1846 15.0352 18.4602 14.8764 18.7277 14.9484L20.5171 15.4298C20.7847 15.5017 20.9434 15.7773 20.8715 16.0449C20.7995 16.3124 20.5239 16.4712 20.2564 16.3992L18.4669 15.9179ZM18.4091 12.4891C18.2938 12.5556 18.1568 12.5736 18.0282 12.5391C17.8997 12.5047 17.79 12.4206 17.7234 12.3054C17.6569 12.1901 17.6389 12.0531 17.6733 11.9245C17.7078 11.7959 17.7919 11.6863 17.9071 11.6196L19.5133 10.6923C19.7532 10.5539 20.0605 10.6362 20.199 10.876C20.2655 10.9914 20.2835 11.1284 20.249 11.2569C20.2146 11.3855 20.1305 11.4952 20.0152 11.5618L18.4091 12.4891Z" fill="#0271E8"/>
</svg>
